<?xml version="1.0" encoding="utf-8" ?>
<svg baseProfile="full" height="1220" version="1.1" viewBox="0 0 1000 1220" width="1000" xmlns="http://www.w3.org/2000/svg" xmlns:ev="http://www.w3.org/2001/xml-events" xmlns:xlink="http://www.w3.org/1999/xlink"><defs /><path d="M 811.00 1367.00 L 807.00 1371.00 L 806.00 1382.00 L 799.00 1393.00 L 798.00 1401.00 L 795.00 1405.00 L 762.00 1406.00 L 758.00 1409.00 L 758.00 1415.00 L 760.00 1418.00 L 779.00 1433.00 L 783.00 1438.00 L 783.00 1451.00 L 776.00 1468.00 L 776.00 1478.00 L 779.00 1481.00 L 785.00 1481.00 L 793.00 1473.00 L 802.00 1470.00 L 808.00 1465.00 L 815.00 1464.00 L 827.00 1467.00 L 835.00 1473.00 L 840.00 1480.00 L 844.00 1482.00 L 851.00 1481.00 L 855.00 1479.00 L 856.00 1471.00 L 849.00 1453.00 L 849.00 1437.00 L 853.00 1433.00 L 860.00 1431.00 L 872.00 1419.00 L 874.00 1415.00 L 874.00 1410.00 L 870.00 1407.00 L 837.00 1405.00 L 833.00 1401.00 L 832.00 1395.00 L 826.00 1387.00 L 824.00 1378.00 L 821.00 1373.00 L 816.00 1368.00 Z M 1002.00 1353.00 L 999.00 1357.00 L 997.00 1367.00 L 991.00 1376.00 L 989.00 1388.00 L 983.00 1396.00 L 974.00 1399.00 L 939.00 1399.00 L 932.00 1404.00 L 932.00 1410.00 L 945.00 1423.00 L 951.00 1426.00 L 966.00 1441.00 L 968.00 1445.00 L 966.00 1463.00 L 961.00 1470.00 L 958.00 1479.00 L 958.00 1485.00 L 963.00 1493.00 L 967.00 1494.00 L 972.00 1489.00 L 989.00 1479.00 L 995.00 1472.00 L 1005.00 1471.00 L 1018.00 1474.00 L 1037.00 1489.00 L 1040.00 1495.00 L 1046.00 1495.00 L 1047.00 1490.00 L 1052.00 1485.00 L 1052.00 1480.00 L 1049.00 1475.00 L 1047.00 1459.00 L 1041.00 1449.00 L 1041.00 1444.00 L 1060.00 1425.00 L 1070.00 1422.00 L 1075.00 1411.00 L 1075.00 1406.00 L 1063.00 1400.00 L 1049.00 1401.00 L 1046.00 1399.00 L 1040.00 1399.00 L 1032.00 1401.00 L 1028.00 1399.00 L 1018.00 1382.00 L 1016.00 1368.00 L 1013.00 1361.00 L 1008.00 1354.00 Z M 643.00 1336.00 L 639.00 1336.00 L 633.00 1340.00 L 631.00 1344.00 L 630.00 1358.00 L 622.00 1365.00 L 616.00 1367.00 L 594.00 1367.00 L 590.00 1368.00 L 587.00 1371.00 L 587.00 1376.00 L 589.00 1380.00 L 600.00 1391.00 L 605.00 1393.00 L 611.00 1401.00 L 611.00 1405.00 L 606.00 1416.00 L 606.00 1429.00 L 608.00 1433.00 L 614.00 1434.00 L 622.00 1431.00 L 635.00 1419.00 L 641.00 1420.00 L 653.00 1432.00 L 659.00 1434.00 L 669.00 1432.00 L 673.00 1428.00 L 674.00 1423.00 L 672.00 1417.00 L 665.00 1410.00 L 666.00 1398.00 L 669.00 1394.00 L 680.00 1390.00 L 683.00 1386.00 L 691.00 1382.00 L 691.00 1375.00 L 681.00 1367.00 L 658.00 1366.00 L 649.00 1352.00 L 647.00 1339.00 Z M 1203.00 1313.00 L 1199.00 1314.00 L 1192.00 1321.00 L 1190.00 1338.00 L 1177.00 1354.00 L 1172.00 1357.00 L 1160.00 1359.00 L 1139.00 1357.00 L 1136.00 1358.00 L 1132.00 1364.00 L 1148.00 1376.00 L 1155.00 1385.00 L 1162.00 1388.00 L 1166.00 1392.00 L 1166.00 1409.00 L 1159.00 1419.00 L 1160.00 1434.00 L 1164.00 1438.00 L 1167.00 1438.00 L 1179.00 1431.00 L 1186.00 1424.00 L 1190.00 1423.00 L 1195.00 1418.00 L 1200.00 1416.00 L 1203.00 1417.00 L 1221.00 1432.00 L 1228.00 1434.00 L 1238.00 1433.00 L 1241.00 1430.00 L 1241.00 1422.00 L 1233.00 1401.00 L 1233.00 1392.00 L 1238.00 1386.00 L 1243.00 1384.00 L 1249.00 1377.00 L 1256.00 1374.00 L 1267.00 1365.00 L 1267.00 1362.00 L 1260.00 1358.00 L 1223.00 1357.00 L 1218.00 1352.00 L 1215.00 1344.00 L 1209.00 1340.00 L 1208.00 1320.00 L 1206.00 1315.00 Z M 470.00 1282.00 L 464.00 1287.00 L 458.00 1305.00 L 452.00 1312.00 L 435.00 1312.00 L 424.00 1320.00 L 423.00 1325.00 L 434.00 1334.00 L 442.00 1338.00 L 446.00 1343.00 L 446.00 1349.00 L 439.00 1358.00 L 439.00 1365.00 L 442.00 1370.00 L 447.00 1373.00 L 452.00 1373.00 L 462.00 1367.00 L 466.00 1361.00 L 474.00 1360.00 L 480.00 1367.00 L 491.00 1374.00 L 495.00 1374.00 L 501.00 1370.00 L 504.00 1365.00 L 504.00 1356.00 L 497.00 1349.00 L 497.00 1345.00 L 514.00 1330.00 L 521.00 1327.00 L 523.00 1323.00 L 520.00 1319.00 L 506.00 1314.00 L 492.00 1314.00 L 486.00 1306.00 L 485.00 1300.00 L 478.00 1285.00 L 474.00 1282.00 Z M 1379.00 1246.00 L 1375.00 1246.00 L 1369.00 1251.00 L 1364.00 1272.00 L 1359.00 1281.00 L 1354.00 1286.00 L 1338.00 1286.00 L 1329.00 1284.00 L 1322.00 1286.00 L 1316.00 1290.00 L 1318.00 1295.00 L 1322.00 1297.00 L 1338.00 1312.00 L 1341.00 1313.00 L 1345.00 1318.00 L 1346.00 1323.00 L 1342.00 1331.00 L 1343.00 1341.00 L 1341.00 1349.00 L 1344.00 1356.00 L 1348.00 1358.00 L 1358.00 1351.00 L 1372.00 1337.00 L 1375.00 1337.00 L 1382.00 1343.00 L 1388.00 1345.00 L 1393.00 1351.00 L 1401.00 1356.00 L 1405.00 1356.00 L 1413.00 1350.00 L 1414.00 1344.00 L 1410.00 1337.00 L 1410.00 1327.00 L 1406.00 1317.00 L 1409.00 1313.00 L 1414.00 1311.00 L 1420.00 1304.00 L 1428.00 1299.00 L 1433.00 1293.00 L 1432.00 1288.00 L 1428.00 1286.00 L 1395.00 1285.00 L 1386.00 1272.00 L 1383.00 1251.00 Z M 312.00 1222.00 L 310.00 1236.00 L 301.00 1246.00 L 282.00 1246.00 L 279.00 1247.00 L 276.00 1251.00 L 278.00 1260.00 L 285.00 1266.00 L 293.00 1276.00 L 293.00 1279.00 L 287.00 1288.00 L 287.00 1297.00 L 293.00 1303.00 L 300.00 1304.00 L 314.00 1289.00 L 318.00 1289.00 L 334.00 1303.00 L 342.00 1303.00 L 349.00 1294.00 L 349.00 1290.00 L 342.00 1275.00 L 350.00 1265.00 L 359.00 1261.00 L 360.00 1251.00 L 356.00 1246.00 L 331.00 1246.00 L 328.00 1242.00 L 328.00 1233.00 L 323.00 1225.00 L 318.00 1221.00 Z M 1494.00 1224.00 L 1494.00 1230.00 L 1503.00 1238.00 L 1511.00 1242.00 L 1519.00 1252.00 L 1517.00 1264.00 L 1511.00 1273.00 L 1512.00 1279.00 L 1516.00 1281.00 L 1525.00 1281.00 L 1534.00 1275.00 L 1547.00 1272.00 L 1554.00 1272.00 L 1562.00 1280.00 L 1575.00 1283.00 L 1581.00 1281.00 L 1581.00 1274.00 L 1577.00 1267.00 L 1576.00 1258.00 L 1573.00 1252.00 L 1591.00 1234.00 L 1593.00 1225.00 L 1588.00 1219.00 L 1582.00 1216.00 L 1578.00 1217.00 L 1573.00 1222.00 L 1568.00 1222.00 L 1562.00 1216.00 L 1558.00 1204.00 L 1553.00 1199.00 L 1551.00 1186.00 L 1548.00 1185.00 L 1543.00 1188.00 L 1541.00 1195.00 L 1535.00 1202.00 L 1535.00 1210.00 L 1532.00 1214.00 L 1522.00 1219.00 L 1506.00 1217.00 L 1500.00 1219.00 Z M 1715.00 1184.00 L 1711.00 1188.00 L 1710.00 1197.00 L 1702.00 1206.00 L 1695.00 1209.00 L 1683.00 1210.00 L 1678.00 1215.00 L 1678.00 1221.00 L 1695.00 1237.00 L 1695.00 1242.00 L 1689.00 1250.00 L 1688.00 1257.00 L 1691.00 1263.00 L 1701.00 1264.00 L 1717.00 1254.00 L 1724.00 1256.00 L 1733.00 1264.00 L 1740.00 1265.00 L 1743.00 1264.00 L 1747.00 1259.00 L 1747.00 1251.00 L 1744.00 1244.00 L 1744.00 1235.00 L 1760.00 1221.00 L 1760.00 1214.00 L 1750.00 1207.00 L 1739.00 1208.00 L 1735.00 1206.00 L 1730.00 1201.00 L 1724.00 1186.00 L 1722.00 1184.00 Z M 1895.00 1176.00 L 1876.00 1150.00 L 1820.00 1109.00 L 1816.00 1103.00 L 1796.00 1093.00 L 1792.00 1087.00 L 1782.00 1085.00 L 1754.00 1065.00 L 1743.00 1062.00 L 1734.00 1055.00 L 1724.00 1054.00 L 1720.00 1048.00 L 1707.00 1046.00 L 1697.00 1039.00 L 1682.00 1038.00 L 1673.00 1031.00 L 1658.00 1030.00 L 1647.00 1022.00 L 1627.00 1021.00 L 1616.00 1014.00 L 1596.00 1015.00 L 1565.00 1007.00 L 1450.00 1007.00 L 1429.00 1013.00 L 1394.00 1015.00 L 1376.00 1022.00 L 1360.00 1023.00 L 1351.00 1029.00 L 1336.00 1031.00 L 1328.00 1037.00 L 1307.00 1039.00 L 1296.00 1045.00 L 1259.00 1055.00 L 1250.00 1062.00 L 1239.00 1064.00 L 1234.00 1070.00 L 1221.00 1072.00 L 1215.00 1078.00 L 1206.00 1080.00 L 1202.00 1087.00 L 1192.00 1087.00 L 1181.00 1095.00 L 1171.00 1096.00 L 1165.00 1102.00 L 1155.00 1104.00 L 1149.00 1110.00 L 1066.00 1152.00 L 1061.00 1158.00 L 1049.00 1160.00 L 1044.00 1167.00 L 1036.00 1167.00 L 1026.00 1175.00 L 1017.00 1176.00 L 1011.00 1183.00 L 1003.00 1183.00 L 996.00 1190.00 L 971.00 1199.00 L 961.00 1207.00 L 908.00 1224.00 L 901.00 1230.00 L 888.00 1232.00 L 882.00 1237.00 L 863.00 1239.00 L 821.00 1255.00 L 802.00 1255.00 L 784.00 1263.00 L 758.00 1263.00 L 729.00 1270.00 L 675.00 1270.00 L 663.00 1277.00 L 661.00 1295.00 L 666.00 1304.00 L 675.00 1305.00 L 684.00 1312.00 L 705.00 1312.00 L 726.00 1320.00 L 769.00 1320.00 L 791.00 1328.00 L 893.00 1329.00 L 928.00 1320.00 L 965.00 1319.00 L 999.00 1312.00 L 1010.00 1306.00 L 1031.00 1304.00 L 1041.00 1298.00 L 1077.00 1288.00 L 1087.00 1280.00 L 1103.00 1280.00 L 1113.00 1273.00 L 1125.00 1271.00 L 1153.00 1257.00 L 1163.00 1256.00 L 1173.00 1248.00 L 1222.00 1232.00 L 1230.00 1225.00 L 1239.00 1224.00 L 1245.00 1217.00 L 1259.00 1215.00 L 1266.00 1208.00 L 1276.00 1207.00 L 1285.00 1201.00 L 1297.00 1199.00 L 1306.00 1192.00 L 1318.00 1191.00 L 1326.00 1184.00 L 1360.00 1175.00 L 1369.00 1169.00 L 1382.00 1168.00 L 1391.00 1161.00 L 1406.00 1162.00 L 1417.00 1153.00 L 1438.00 1152.00 L 1451.00 1145.00 L 1470.00 1145.00 L 1492.00 1136.00 L 1518.00 1136.00 L 1533.00 1129.00 L 1651.00 1129.00 L 1666.00 1136.00 L 1697.00 1137.00 L 1711.00 1144.00 L 1730.00 1144.00 L 1744.00 1152.00 L 1764.00 1153.00 L 1772.00 1160.00 L 1788.00 1162.00 L 1832.00 1184.00 L 1844.00 1185.00 L 1871.00 1200.00 L 1884.00 1198.00 L 1894.00 1186.00 Z M 1739.00 1105.00 L 1739.00 1110.00 L 1734.00 1111.00 L 1726.00 1109.00 L 1716.00 1102.00 L 1693.00 1102.00 L 1677.00 1095.00 L 1647.00 1095.00 L 1603.00 1089.00 L 1559.00 1091.00 L 1545.00 1094.00 L 1514.00 1094.00 L 1483.00 1102.00 L 1461.00 1102.00 L 1441.00 1110.00 L 1425.00 1111.00 L 1411.00 1118.00 L 1389.00 1120.00 L 1357.00 1133.00 L 1341.00 1136.00 L 1333.00 1142.00 L 1321.00 1144.00 L 1313.00 1151.00 L 1302.00 1151.00 L 1292.00 1158.00 L 1281.00 1159.00 L 1272.00 1166.00 L 1259.00 1167.00 L 1248.00 1174.00 L 1240.00 1175.00 L 1195.00 1198.00 L 1186.00 1199.00 L 1176.00 1206.00 L 1169.00 1207.00 L 1159.00 1214.00 L 1148.00 1215.00 L 1139.00 1222.00 L 1127.00 1224.00 L 1121.00 1230.00 L 1108.00 1232.00 L 1101.00 1238.00 L 1087.00 1239.00 L 1078.00 1245.00 L 1063.00 1247.00 L 1050.00 1254.00 L 1038.00 1255.00 L 1026.00 1262.00 L 1014.00 1263.00 L 1003.00 1269.00 L 985.00 1271.00 L 976.00 1278.00 L 953.00 1278.00 L 920.00 1286.00 L 887.00 1286.00 L 873.00 1289.00 L 861.00 1289.00 L 857.00 1286.00 L 861.00 1281.00 L 877.00 1280.00 L 886.00 1273.00 L 903.00 1272.00 L 910.00 1265.00 L 925.00 1264.00 L 933.00 1256.00 L 941.00 1256.00 L 951.00 1251.00 L 965.00 1248.00 L 973.00 1241.00 L 982.00 1240.00 L 994.00 1233.00 L 1001.00 1232.00 L 1009.00 1225.00 L 1015.00 1224.00 L 1023.00 1218.00 L 1034.00 1216.00 L 1041.00 1209.00 L 1051.00 1207.00 L 1085.00 1187.00 L 1095.00 1184.00 L 1102.00 1178.00 L 1128.00 1167.00 L 1137.00 1160.00 L 1141.00 1160.00 L 1149.00 1152.00 L 1157.00 1152.00 L 1164.00 1145.00 L 1173.00 1144.00 L 1182.00 1136.00 L 1192.00 1135.00 L 1199.00 1129.00 L 1207.00 1127.00 L 1215.00 1121.00 L 1222.00 1120.00 L 1231.00 1113.00 L 1242.00 1111.00 L 1249.00 1106.00 L 1257.00 1104.00 L 1268.00 1096.00 L 1275.00 1096.00 L 1284.00 1089.00 L 1294.00 1088.00 L 1307.00 1080.00 L 1319.00 1080.00 L 1330.00 1072.00 L 1346.00 1072.00 L 1360.00 1065.00 L 1380.00 1063.00 L 1390.00 1057.00 L 1417.00 1056.00 L 1437.00 1049.00 L 1514.00 1045.00 L 1542.00 1049.00 L 1586.00 1048.00 L 1594.00 1055.00 L 1608.00 1056.00 L 1625.00 1063.00 L 1648.00 1066.00 L 1661.00 1072.00 L 1675.00 1073.00 L 1679.00 1079.00 L 1692.00 1081.00 L 1702.00 1089.00 L 1715.00 1090.00 L 1730.00 1102.00 Z M 975.00 358.00 L 979.00 370.00 L 986.00 379.00 L 995.00 376.00 L 1740.00 376.00 L 1749.00 378.00 L 1752.00 374.00 L 1755.00 360.00 L 1754.00 340.00 L 1756.00 331.00 L 1749.00 319.00 L 987.00 318.00 L 975.00 332.00 L 977.00 340.00 Z M 119.00 425.00 L 127.00 460.00 L 79.00 543.00 L 47.00 661.00 L 47.00 784.00 L 80.00 913.00 L 136.00 1014.00 L 209.00 1097.00 L 301.00 1167.00 L 417.00 1224.00 L 485.00 1244.00 L 501.00 1221.00 L 666.00 1250.00 L 824.00 1232.00 L 973.00 1175.00 L 1132.00 1088.00 L 1278.00 1026.00 L 1481.00 986.00 L 1661.00 1009.00 L 1793.00 1072.00 L 1882.00 1145.00 L 1900.00 1146.00 L 1912.00 1133.00 L 1870.00 1042.00 L 1789.00 939.00 L 1786.00 849.00 L 1740.00 841.00 L 1728.00 794.00 L 1681.00 770.00 L 1681.00 452.00 L 1705.00 436.00 L 1700.00 392.00 L 1544.00 393.00 L 1527.00 402.00 L 1527.00 437.00 L 1550.00 452.00 L 1550.00 768.00 L 1511.00 797.00 L 1463.00 789.00 L 1432.00 761.00 L 1432.00 453.00 L 1457.00 435.00 L 1456.00 399.00 L 1283.00 392.00 L 1277.00 435.00 L 1302.00 452.00 L 1302.00 769.00 L 1268.00 804.00 L 1232.00 812.00 L 1213.00 784.00 L 1185.00 772.00 L 1185.00 452.00 L 1208.00 436.00 L 1208.00 402.00 L 1196.00 390.00 L 1035.00 392.00 L 1030.00 436.00 L 1049.00 453.00 L 1048.00 770.00 L 1009.00 792.00 L 998.00 842.00 L 952.00 847.00 L 951.00 929.00 L 917.00 951.00 L 892.00 937.00 L 819.00 959.00 L 764.00 961.00 L 698.00 959.00 L 636.00 942.00 L 563.00 909.00 L 480.00 831.00 L 449.00 776.00 L 432.00 670.00 L 465.00 582.00 L 490.00 553.00 L 548.00 513.00 L 630.00 489.00 L 675.00 513.00 L 753.00 584.00 L 774.00 582.00 L 783.00 633.00 L 778.00 743.00 L 811.00 743.00 L 862.00 695.00 L 912.00 598.00 L 920.00 476.00 L 879.00 362.00 L 806.00 272.00 L 727.00 217.00 L 638.00 182.00 L 514.00 172.00 L 415.00 183.00 L 327.00 216.00 L 235.00 278.00 L 168.00 348.00 Z M 1313.00 971.00 L 1324.00 963.00 L 1335.00 959.00 L 1341.00 953.00 L 1350.00 953.00 L 1357.00 945.00 L 1367.00 944.00 L 1376.00 937.00 L 1388.00 935.00 L 1395.00 928.00 L 1408.00 928.00 L 1422.00 921.00 L 1438.00 919.00 L 1451.00 912.00 L 1461.00 912.00 L 1471.00 908.00 L 1478.00 908.00 L 1488.00 905.00 L 1525.00 904.00 L 1549.00 901.00 L 1572.00 901.00 L 1589.00 904.00 L 1615.00 905.00 L 1625.00 907.00 L 1634.00 912.00 L 1657.00 914.00 L 1664.00 919.00 L 1674.00 921.00 L 1684.00 927.00 L 1695.00 929.00 L 1702.00 935.00 L 1715.00 937.00 L 1721.00 943.00 L 1724.00 944.00 L 1729.00 951.00 L 1740.00 953.00 L 1759.00 974.00 L 1764.00 976.00 L 1768.00 982.00 L 1790.00 1003.00 L 1793.00 1010.00 L 1806.00 1025.00 L 1812.00 1037.00 L 1810.00 1037.00 L 1807.00 1033.00 L 1796.00 1030.00 L 1790.00 1023.00 L 1779.00 1023.00 L 1774.00 1015.00 L 1765.00 1015.00 L 1758.00 1007.00 L 1749.00 1006.00 L 1743.00 1001.00 L 1736.00 998.00 L 1724.00 998.00 L 1720.00 993.00 L 1709.00 990.00 L 1703.00 984.00 L 1687.00 982.00 L 1678.00 975.00 L 1664.00 973.00 L 1651.00 967.00 L 1635.00 966.00 L 1622.00 959.00 L 1586.00 958.00 L 1571.00 951.00 L 1533.00 951.00 L 1512.00 949.00 L 1422.00 951.00 L 1407.00 958.00 L 1370.00 958.00 L 1360.00 965.00 L 1338.00 966.00 L 1331.00 972.00 L 1321.00 975.00 L 1317.00 975.00 Z M 1721.00 882.00 L 1744.00 882.00 L 1747.00 886.00 L 1747.00 891.00 L 1750.00 896.00 L 1749.00 901.00 L 1746.00 903.00 L 1741.00 902.00 L 1734.00 893.00 L 1723.00 889.00 L 1720.00 886.00 Z M 1044.00 883.00 L 1043.00 886.00 L 1023.00 896.00 L 1020.00 900.00 L 1016.00 902.00 L 1005.00 904.00 L 991.00 912.00 L 988.00 912.00 L 985.00 909.00 L 985.00 901.00 L 988.00 893.00 L 987.00 887.00 L 988.00 884.00 L 992.00 881.00 L 1040.00 880.00 Z M 1576.00 860.00 L 1570.00 863.00 L 1494.00 863.00 L 1472.00 870.00 L 1458.00 869.00 L 1419.00 879.00 L 1407.00 887.00 L 1394.00 887.00 L 1364.00 902.00 L 1354.00 903.00 L 1266.00 949.00 L 1244.00 967.00 L 1235.00 969.00 L 1209.00 990.00 L 1177.00 1007.00 L 1146.00 1031.00 L 1114.00 1047.00 L 1072.00 1077.00 L 1050.00 1087.00 L 1044.00 1094.00 L 1019.00 1104.00 L 1011.00 1111.00 L 1003.00 1112.00 L 996.00 1119.00 L 971.00 1128.00 L 933.00 1150.00 L 920.00 1152.00 L 914.00 1159.00 L 903.00 1159.00 L 892.00 1167.00 L 879.00 1168.00 L 870.00 1174.00 L 809.00 1190.00 L 793.00 1198.00 L 775.00 1199.00 L 753.00 1206.00 L 686.00 1209.00 L 597.00 1206.00 L 582.00 1199.00 L 563.00 1198.00 L 551.00 1192.00 L 538.00 1191.00 L 495.00 1174.00 L 486.00 1167.00 L 459.00 1157.00 L 454.00 1151.00 L 443.00 1150.00 L 429.00 1136.00 L 382.00 1102.00 L 338.00 1053.00 L 304.00 1005.00 L 308.00 1000.00 L 323.00 1016.00 L 331.00 1016.00 L 338.00 1025.00 L 346.00 1026.00 L 358.00 1038.00 L 409.00 1064.00 L 418.00 1065.00 L 428.00 1072.00 L 444.00 1073.00 L 451.00 1080.00 L 470.00 1081.00 L 480.00 1088.00 L 500.00 1089.00 L 509.00 1095.00 L 522.00 1097.00 L 644.00 1097.00 L 666.00 1089.00 L 693.00 1088.00 L 700.00 1081.00 L 724.00 1080.00 L 800.00 1055.00 L 875.00 1017.00 L 886.00 1015.00 L 893.00 1008.00 L 902.00 1008.00 L 941.00 985.00 L 949.00 984.00 L 981.00 961.00 L 1006.00 952.00 L 1014.00 945.00 L 1021.00 946.00 L 1062.00 921.00 L 1123.00 896.00 L 1132.00 889.00 L 1142.00 888.00 L 1152.00 881.00 L 1165.00 880.00 L 1178.00 872.00 L 1190.00 871.00 L 1201.00 864.00 L 1242.00 855.00 L 1257.00 848.00 L 1269.00 848.00 L 1278.00 841.00 L 1311.00 840.00 L 1326.00 834.00 L 1358.00 832.00 L 1479.00 833.00 L 1510.00 841.00 L 1529.00 841.00 Z M 1044.00 833.00 L 1044.00 828.00 L 1047.00 825.00 L 1055.00 822.00 L 1102.00 822.00 L 1114.00 824.00 L 1176.00 823.00 L 1181.00 826.00 L 1181.00 829.00 L 1179.00 831.00 L 1169.00 831.00 L 1158.00 837.00 L 1146.00 837.00 L 1137.00 840.00 L 1131.00 840.00 L 1120.00 845.00 L 1054.00 845.00 L 1047.00 840.00 Z M 1691.00 831.00 L 1686.00 841.00 L 1682.00 844.00 L 1661.00 844.00 L 1652.00 846.00 L 1644.00 840.00 L 1635.00 838.00 L 1628.00 831.00 L 1613.00 830.00 L 1611.00 828.00 L 1611.00 825.00 L 1615.00 822.00 L 1647.00 824.00 L 1680.00 821.00 L 1689.00 826.00 Z M 366.00 551.00 L 398.00 529.00 L 406.00 526.00 L 419.00 515.00 L 431.00 512.00 L 436.00 507.00 L 455.00 503.00 L 489.00 489.00 L 499.00 489.00 L 501.00 492.00 L 474.00 510.00 L 471.00 516.00 L 440.00 547.00 L 438.00 556.00 L 432.00 560.00 L 424.00 573.00 L 422.00 581.00 L 416.00 587.00 L 414.00 598.00 L 407.00 609.00 L 406.00 619.00 L 399.00 639.00 L 397.00 688.00 L 399.00 751.00 L 405.00 759.00 L 408.00 780.00 L 414.00 788.00 L 416.00 799.00 L 422.00 807.00 L 425.00 819.00 L 431.00 829.00 L 438.00 835.00 L 440.00 846.00 L 446.00 850.00 L 449.00 857.00 L 472.00 886.00 L 532.00 935.00 L 540.00 937.00 L 546.00 944.00 L 553.00 946.00 L 561.00 953.00 L 570.00 954.00 L 577.00 960.00 L 584.00 960.00 L 592.00 967.00 L 601.00 969.00 L 609.00 975.00 L 626.00 978.00 L 635.00 984.00 L 647.00 984.00 L 664.00 992.00 L 679.00 992.00 L 711.00 1000.00 L 762.00 1000.00 L 767.00 1004.00 L 765.00 1006.00 L 729.00 1015.00 L 719.00 1022.00 L 699.00 1023.00 L 690.00 1029.00 L 665.00 1031.00 L 645.00 1039.00 L 542.00 1039.00 L 510.00 1037.00 L 502.00 1031.00 L 478.00 1030.00 L 469.00 1023.00 L 457.00 1022.00 L 449.00 1016.00 L 437.00 1013.00 L 429.00 1007.00 L 420.00 1006.00 L 414.00 1000.00 L 408.00 999.00 L 393.00 990.00 L 388.00 984.00 L 380.00 983.00 L 366.00 968.00 L 359.00 965.00 L 313.00 917.00 L 305.00 906.00 L 303.00 897.00 L 297.00 891.00 L 296.00 883.00 L 289.00 873.00 L 288.00 865.00 L 281.00 852.00 L 280.00 841.00 L 274.00 830.00 L 272.00 806.00 L 265.00 782.00 L 266.00 735.00 L 274.00 711.00 L 273.00 696.00 L 280.00 685.00 L 281.00 672.00 L 288.00 661.00 L 290.00 648.00 L 296.00 635.00 L 303.00 629.00 L 304.00 622.00 L 312.00 613.00 L 314.00 607.00 L 343.00 573.00 Z M 1596.00 448.00 L 1635.00 448.00 L 1638.00 449.00 L 1641.00 453.00 L 1640.00 466.00 L 1642.00 763.00 L 1641.00 770.00 L 1639.00 774.00 L 1635.00 777.00 L 1626.00 776.00 L 1621.00 778.00 L 1597.00 778.00 L 1592.00 770.00 L 1590.00 454.00 Z M 1387.00 448.00 L 1391.00 452.00 L 1390.00 769.00 L 1384.00 777.00 L 1370.00 776.00 L 1354.00 780.00 L 1348.00 778.00 L 1343.00 773.00 L 1341.00 767.00 L 1341.00 453.00 L 1343.00 450.00 L 1348.00 448.00 Z M 1101.00 448.00 L 1138.00 448.00 L 1143.00 453.00 L 1143.00 771.00 L 1138.00 778.00 L 1114.00 778.00 L 1108.00 776.00 L 1100.00 778.00 L 1097.00 776.00 L 1093.00 766.00 L 1093.00 453.00 L 1097.00 449.00 Z M 498.00 329.00 L 507.00 336.00 L 524.00 337.00 L 569.00 353.00 L 601.00 369.00 L 618.00 382.00 L 627.00 384.00 L 695.00 452.00 L 703.00 469.00 L 712.00 479.00 L 712.00 487.00 L 706.00 486.00 L 687.00 471.00 L 677.00 470.00 L 657.00 456.00 L 636.00 448.00 L 621.00 446.00 L 608.00 439.00 L 575.00 436.00 L 566.00 431.00 L 482.00 430.00 L 457.00 438.00 L 442.00 439.00 L 435.00 446.00 L 417.00 447.00 L 409.00 454.00 L 395.00 456.00 L 388.00 462.00 L 363.00 472.00 L 330.00 495.00 L 271.00 555.00 L 262.00 572.00 L 256.00 577.00 L 232.00 622.00 L 229.00 635.00 L 224.00 640.00 L 206.00 697.00 L 207.00 709.00 L 200.00 729.00 L 198.00 752.00 L 199.00 865.00 L 205.00 881.00 L 206.00 904.00 L 214.00 925.00 L 215.00 937.00 L 222.00 948.00 L 224.00 958.00 L 231.00 966.00 L 231.00 982.00 L 237.00 988.00 L 239.00 998.00 L 254.00 1021.00 L 255.00 1030.00 L 265.00 1048.00 L 297.00 1090.00 L 296.00 1099.00 L 321.00 1121.00 L 324.00 1126.00 L 322.00 1129.00 L 311.00 1126.00 L 268.00 1095.00 L 193.00 1020.00 L 147.00 954.00 L 127.00 911.00 L 113.00 889.00 L 112.00 873.00 L 105.00 865.00 L 104.00 847.00 L 96.00 836.00 L 96.00 814.00 L 88.00 789.00 L 83.00 705.00 L 88.00 681.00 L 90.00 647.00 L 96.00 637.00 L 96.00 625.00 L 104.00 606.00 L 105.00 591.00 L 112.00 570.00 L 120.00 560.00 L 121.00 548.00 L 128.00 542.00 L 130.00 533.00 L 144.00 508.00 L 151.00 502.00 L 154.00 492.00 L 181.00 459.00 L 184.00 451.00 L 228.00 409.00 L 248.00 396.00 L 256.00 387.00 L 319.00 353.00 L 333.00 351.00 L 340.00 345.00 L 355.00 343.00 L 382.00 331.00 L 406.00 328.00 Z M 269.00 305.00 L 276.00 298.00 L 317.00 273.00 L 337.00 257.00 L 346.00 255.00 L 355.00 248.00 L 363.00 248.00 L 371.00 240.00 L 382.00 240.00 L 395.00 233.00 L 408.00 231.00 L 417.00 225.00 L 434.00 223.00 L 445.00 216.00 L 470.00 216.00 L 482.00 210.00 L 492.00 208.00 L 564.00 209.00 L 574.00 215.00 L 605.00 217.00 L 622.00 223.00 L 639.00 224.00 L 650.00 232.00 L 663.00 233.00 L 673.00 240.00 L 701.00 249.00 L 706.00 255.00 L 716.00 257.00 L 730.00 269.00 L 738.00 272.00 L 746.00 280.00 L 754.00 282.00 L 778.00 303.00 L 783.00 305.00 L 806.00 332.00 L 822.00 347.00 L 832.00 366.00 L 844.00 382.00 L 849.00 397.00 L 861.00 415.00 L 865.00 434.00 L 871.00 448.00 L 877.00 455.00 L 879.00 490.00 L 883.00 504.00 L 883.00 528.00 L 879.00 548.00 L 878.00 576.00 L 871.00 586.00 L 869.00 599.00 L 863.00 609.00 L 861.00 618.00 L 856.00 624.00 L 855.00 635.00 L 848.00 641.00 L 832.00 666.00 L 827.00 671.00 L 822.00 671.00 L 819.00 667.00 L 820.00 641.00 L 817.00 626.00 L 816.00 580.00 L 809.00 569.00 L 809.00 547.00 L 802.00 534.00 L 799.00 517.00 L 793.00 508.00 L 792.00 496.00 L 786.00 488.00 L 774.00 461.00 L 767.00 449.00 L 761.00 444.00 L 759.00 435.00 L 754.00 431.00 L 743.00 412.00 L 703.00 368.00 L 684.00 350.00 L 671.00 342.00 L 655.00 328.00 L 641.00 320.00 L 633.00 318.00 L 616.00 305.00 L 604.00 302.00 L 597.00 296.00 L 583.00 294.00 L 573.00 288.00 L 558.00 286.00 L 547.00 280.00 L 524.00 278.00 L 503.00 271.00 L 397.00 270.00 L 380.00 275.00 L 352.00 279.00 L 316.00 292.00 L 308.00 292.00 L 281.00 304.00 L 274.00 310.00 L 270.00 310.00 Z M 923.00 273.00 L 927.00 294.00 L 941.00 301.00 L 956.00 299.00 L 1005.00 299.00 L 1011.00 301.00 L 1715.00 301.00 L 1723.00 299.00 L 1775.00 299.00 L 1786.00 301.00 L 1804.00 296.00 L 1809.00 291.00 L 1807.00 267.00 L 1796.00 255.00 L 1787.00 254.00 L 1781.00 246.00 L 1760.00 237.00 L 1729.00 216.00 L 1719.00 213.00 L 1701.00 200.00 L 1692.00 197.00 L 1667.00 177.00 L 1655.00 173.00 L 1639.00 161.00 L 1630.00 158.00 L 1598.00 135.00 L 1589.00 134.00 L 1583.00 128.00 L 1575.00 126.00 L 1559.00 112.00 L 1550.00 109.00 L 1533.00 97.00 L 1523.00 94.00 L 1518.00 88.00 L 1509.00 86.00 L 1491.00 72.00 L 1484.00 70.00 L 1478.00 63.00 L 1468.00 62.00 L 1461.00 54.00 L 1444.00 46.00 L 1438.00 40.00 L 1430.00 38.00 L 1412.00 24.00 L 1404.00 22.00 L 1388.00 9.00 L 1368.00 4.00 L 1348.00 8.00 L 1330.00 22.00 L 1320.00 24.00 L 1314.00 31.00 L 1296.00 40.00 L 1292.00 45.00 L 1280.00 49.00 L 1267.00 62.00 L 1258.00 62.00 L 1251.00 70.00 L 1243.00 72.00 L 1225.00 86.00 L 1215.00 89.00 L 1211.00 94.00 L 1176.00 112.00 L 1170.00 118.00 L 1152.00 128.00 L 1147.00 134.00 L 1137.00 135.00 L 1132.00 141.00 L 1112.00 152.00 L 1106.00 158.00 L 1097.00 161.00 L 1079.00 174.00 L 1067.00 178.00 L 1054.00 189.00 L 1044.00 192.00 L 1028.00 205.00 L 1017.00 208.00 L 1011.00 214.00 L 1004.00 216.00 L 973.00 237.00 L 963.00 240.00 L 953.00 247.00 L 948.00 254.00 L 938.00 256.00 L 929.00 263.00 Z M 1031.00 253.00 L 1045.00 241.00 L 1056.00 238.00 L 1060.00 233.00 L 1069.00 230.00 L 1085.00 218.00 L 1093.00 216.00 L 1099.00 209.00 L 1109.00 206.00 L 1123.00 193.00 L 1130.00 192.00 L 1137.00 185.00 L 1159.00 175.00 L 1165.00 169.00 L 1172.00 167.00 L 1178.00 161.00 L 1184.00 159.00 L 1191.00 153.00 L 1198.00 151.00 L 1203.00 145.00 L 1210.00 143.00 L 1223.00 135.00 L 1227.00 130.00 L 1236.00 128.00 L 1242.00 121.00 L 1252.00 118.00 L 1257.00 113.00 L 1264.00 110.00 L 1267.00 106.00 L 1279.00 102.00 L 1295.00 90.00 L 1304.00 87.00 L 1313.00 80.00 L 1318.00 79.00 L 1334.00 66.00 L 1345.00 62.00 L 1365.00 48.00 L 1369.00 48.00 L 1376.00 55.00 L 1386.00 58.00 L 1393.00 64.00 L 1399.00 65.00 L 1407.00 72.00 L 1418.00 79.00 L 1425.00 81.00 L 1432.00 87.00 L 1441.00 90.00 L 1449.00 97.00 L 1466.00 104.00 L 1472.00 111.00 L 1481.00 113.00 L 1487.00 119.00 L 1492.00 120.00 L 1500.00 127.00 L 1507.00 129.00 L 1512.00 135.00 L 1519.00 138.00 L 1523.00 142.00 L 1533.00 145.00 L 1538.00 151.00 L 1546.00 153.00 L 1563.00 166.00 L 1570.00 168.00 L 1577.00 175.00 L 1586.00 177.00 L 1604.00 191.00 L 1613.00 194.00 L 1617.00 199.00 L 1636.00 209.00 L 1643.00 216.00 L 1649.00 217.00 L 1656.00 223.00 L 1661.00 224.00 L 1667.00 230.00 L 1677.00 233.00 L 1680.00 238.00 L 1690.00 241.00 L 1695.00 247.00 L 1704.00 252.00 L 1703.00 257.00 L 1695.00 258.00 L 1688.00 253.00 L 1683.00 253.00 L 1672.00 258.00 L 1635.00 256.00 L 1135.00 256.00 L 1064.00 258.00 L 1058.00 256.00 L 1054.00 252.00 L 1050.00 252.00 L 1042.00 258.00 L 1035.00 258.00 L 1031.00 255.00 Z " fill="#1D4667" fill-rule="evenodd" transform="translate(70.00,40.00) scale(0.416667)" /><path d="M 328.67 728.86 C 328.67 743.10 323.73 750.46 314.07 750.46 C 310.81 750.46 309.24 749.85 308.52 749.85 C 307.68 749.85 306.58 750.59 306.58 751.19 C 306.58 752.15 308.52 753.47 312.01 753.47 C 330.48 753.47 339.54 740.80 339.54 725.95 C 339.54 712.92 326.50 704.71 308.52 704.71 C 305.13 704.71 299.94 705.43 295.11 705.43 C 290.17 705.43 289.81 705.31 283.28 705.31 C 281.23 705.31 279.78 705.67 279.78 706.63 C 279.78 707.73 280.98 708.58 283.78 709.05 C 289.81 710.14 291.13 713.88 291.13 721.12 L 291.13 772.07 C 291.13 778.00 288.36 780.17 282.32 781.24 C 279.55 781.73 278.34 782.34 278.34 783.43 C 278.34 784.39 279.78 784.75 281.83 784.75 C 288.36 784.75 291.38 783.90 297.53 783.90 C 302.11 783.90 302.85 784.75 309.35 784.75 C 311.41 784.75 312.86 784.39 312.86 783.43 C 312.86 782.34 311.66 781.73 308.88 781.24 C 302.85 780.17 300.79 776.54 300.79 770.75 L 300.79 713.16 C 300.79 709.54 303.92 708.09 308.52 708.09 C 320.22 708.09 328.67 714.12 328.67 728.86 Z M 382.28 718.71 C 382.77 717.39 383.02 716.65 383.24 716.65 C 383.62 716.65 383.85 717.39 384.34 718.84 L 393.88 747.68 C 393.99 748.17 394.11 748.64 394.11 748.89 C 394.11 749.49 393.64 749.49 392.43 749.49 L 373.72 749.49 C 372.15 749.49 371.17 749.49 371.17 748.64 C 371.17 748.42 371.30 748.04 371.41 747.68 L 382.28 718.71 Z M 422.72 784.75 C 424.78 784.75 426.23 784.51 426.23 783.54 C 426.23 782.45 425.03 781.24 422.25 780.77 C 417.42 779.92 413.42 778.36 410.05 768.70 C 406.07 757.23 396.30 728.72 388.56 704.22 C 388.20 703.14 387.96 701.33 387.35 701.33 C 386.75 701.33 386.51 704.46 384.83 705.56 C 383.37 706.52 381.92 706.88 380.47 707.37 C 380.22 707.48 380.60 709.29 378.79 714.37 C 370.70 736.70 365.26 750.46 356.21 771.11 C 353.55 777.15 349.93 779.20 345.82 780.41 C 343.17 781.24 341.84 782.09 341.84 783.19 C 341.84 784.15 343.29 784.75 345.34 784.75 C 349.32 784.75 354.51 784.03 359.83 784.03 C 364.30 784.03 368.64 784.26 370.81 784.26 C 372.87 784.26 374.32 783.90 374.32 782.94 C 374.32 781.85 373.11 781.24 370.34 780.53 C 366.47 779.56 363.32 777.15 363.32 773.64 C 363.32 772.07 367.08 760.00 368.15 756.87 C 368.75 755.17 369.49 754.68 370.21 754.68 L 393.28 754.68 C 395.45 754.68 396.16 754.81 396.52 756.02 C 398.33 762.06 401.13 771.47 401.13 774.98 C 401.13 777.62 399.07 779.56 393.75 780.41 C 391.58 780.77 389.77 781.62 389.77 782.69 C 389.77 783.66 391.22 784.15 393.28 784.15 C 396.16 784.15 401.24 784.03 405.95 784.03 C 411.39 784.03 419.35 784.75 422.72 784.75 Z M 496.37 767.60 C 493.24 773.77 487.44 782.22 473.92 782.22 C 455.09 782.22 443.25 761.93 443.25 742.25 C 443.25 724.50 455.45 707.84 473.20 707.84 C 484.29 707.84 489.73 712.80 490.93 714.01 C 492.39 715.33 494.56 717.99 495.16 722.82 C 495.65 725.59 496.97 727.16 498.31 727.29 C 499.52 727.40 499.76 725.59 499.63 724.50 C 499.52 718.24 499.16 715.09 498.67 711.35 C 498.56 709.65 498.06 707.84 497.10 707.73 C 494.69 707.37 490.10 706.28 487.92 705.56 C 485.75 704.82 478.99 704.11 475.13 704.11 C 451.70 704.11 431.17 721.73 431.17 745.15 C 431.17 767.13 448.21 785.96 470.18 785.96 C 477.43 785.96 486.24 784.86 490.46 783.54 C 493.48 782.58 495.76 781.98 496.37 781.02 C 498.18 778.22 499.88 771.47 500.37 768.45 C 500.37 768.21 500.48 767.85 500.48 767.49 C 500.48 766.40 500.12 765.19 499.63 765.19 C 499.52 765.19 499.52 765.19 499.39 765.32 C 498.78 765.79 497.10 766.28 496.37 767.60 Z M 518.59 717.75 L 518.59 772.32 C 518.59 778.00 515.21 780.17 509.18 781.24 C 506.40 781.73 505.20 782.34 505.20 783.43 C 505.20 784.39 506.63 784.75 508.69 784.75 C 515.21 784.75 518.10 784.15 524.13 784.15 C 529.70 784.15 531.76 784.75 538.26 784.75 C 540.32 784.75 541.77 784.39 541.77 783.43 C 541.77 782.34 540.57 781.73 537.79 781.24 C 531.76 780.17 528.25 778.00 528.25 772.32 L 528.25 717.75 C 528.25 712.07 530.78 710.14 536.81 709.05 C 539.60 708.58 540.81 707.73 540.81 706.63 C 540.81 705.67 539.36 705.31 537.30 705.31 C 530.78 705.31 529.34 705.67 524.13 705.67 C 518.59 705.67 516.53 705.31 510.02 705.31 C 507.97 705.31 506.52 705.67 506.52 706.63 C 506.52 707.73 507.72 708.58 510.50 709.05 C 516.53 710.14 518.59 712.07 518.59 717.75 Z M 602.50 718.46 C 602.50 716.78 602.38 709.18 601.89 706.39 C 601.78 705.56 600.57 705.31 599.72 705.31 C 599.72 705.31 583.54 705.67 572.56 705.67 C 564.22 705.67 560.60 705.31 551.79 705.31 C 549.73 705.31 548.28 705.67 548.28 706.63 C 548.28 707.73 549.49 708.58 552.28 709.05 C 558.32 710.14 559.64 713.88 559.64 721.12 L 559.64 772.07 C 559.64 778.00 557.58 780.17 551.54 781.24 C 548.77 781.73 547.56 782.34 547.56 783.43 C 547.56 784.39 549.02 784.75 551.07 784.75 C 557.58 784.75 560.35 783.90 566.28 783.90 C 570.86 783.90 571.60 784.75 578.11 784.75 C 580.16 784.75 581.61 784.39 581.61 783.43 C 581.61 782.34 580.41 781.73 577.63 781.24 C 571.60 780.17 569.90 777.15 569.65 771.96 C 569.30 763.98 569.30 756.38 569.30 749.02 C 569.30 746.97 570.62 746.12 572.20 746.00 C 574.73 745.87 577.26 745.76 580.05 745.76 C 581.97 745.76 584.03 745.87 586.08 745.87 C 588.01 745.87 590.54 746.83 591.74 750.59 C 591.99 751.44 592.95 753.36 594.54 753.36 C 595.50 753.36 595.61 752.40 595.61 751.30 C 595.37 747.81 595.25 745.51 595.25 743.10 C 595.25 741.17 595.37 739.23 595.61 736.46 C 595.74 735.36 594.65 734.53 594.05 734.53 C 593.44 734.53 592.12 735.97 591.88 736.57 C 590.67 739.36 588.01 741.29 584.50 741.29 C 581.61 741.29 575.58 741.65 570.50 741.65 C 569.41 741.65 569.30 740.33 569.30 738.99 C 569.18 736.10 569.18 731.87 569.18 727.76 C 569.18 723.54 569.18 719.44 569.30 716.42 C 569.41 713.27 569.65 710.39 573.41 710.39 L 588.73 710.39 C 591.74 710.39 594.54 711.10 596.82 713.63 C 597.91 714.84 598.76 716.90 599.59 719.56 C 599.84 720.41 600.57 721.01 601.40 721.01 C 602.14 721.01 602.50 719.91 602.50 718.46 Z M 621.45 717.75 L 621.45 772.32 C 621.45 778.00 618.07 780.17 612.04 781.24 C 609.27 781.73 608.06 782.34 608.06 783.43 C 608.06 784.39 609.49 784.75 611.55 784.75 C 618.07 784.75 620.96 784.15 627.00 784.15 C 632.56 784.15 634.62 784.75 641.13 784.75 C 643.18 784.75 644.64 784.39 644.64 783.43 C 644.64 782.34 643.43 781.73 640.66 781.24 C 634.62 780.17 631.11 778.00 631.11 772.32 L 631.11 717.75 C 631.11 712.07 633.64 710.14 639.67 709.05 C 642.47 708.58 643.67 707.73 643.67 706.63 C 643.67 705.67 642.22 705.31 640.16 705.31 C 633.64 705.31 632.20 705.67 627.00 705.67 C 621.45 705.67 619.40 705.31 612.89 705.31 C 610.83 705.31 609.38 705.67 609.38 706.63 C 609.38 707.73 610.59 708.58 613.36 709.05 C 619.40 710.14 621.45 712.07 621.45 717.75 Z M 717.55 767.60 C 714.41 773.77 708.62 782.22 695.10 782.22 C 676.27 782.22 664.42 761.93 664.42 742.25 C 664.42 724.50 676.63 707.84 694.38 707.84 C 705.47 707.84 710.91 712.80 712.11 714.01 C 713.57 715.33 715.73 717.99 716.34 722.82 C 716.83 725.59 718.15 727.16 719.49 727.29 C 720.70 727.40 720.94 725.59 720.81 724.50 C 720.70 718.24 720.34 715.09 719.85 711.35 C 719.73 709.65 719.24 707.84 718.28 707.73 C 715.87 707.37 711.28 706.28 709.09 705.56 C 706.92 704.82 700.17 704.11 696.30 704.11 C 672.88 704.11 652.35 721.73 652.35 745.15 C 652.35 767.13 669.39 785.96 691.36 785.96 C 698.61 785.96 707.42 784.86 711.64 783.54 C 714.66 782.58 716.94 781.98 717.55 781.02 C 719.36 778.22 721.05 771.47 721.54 768.45 C 721.54 768.21 721.66 767.85 721.66 767.49 C 721.66 766.40 721.30 765.19 720.81 765.19 C 720.70 765.19 720.70 765.19 720.56 765.32 C 719.96 765.79 718.28 766.28 717.55 767.60 Z" fill="#1D4667" /><path d="M 141.98 885.70 C 134.98 885.70 128.45 882.68 126.17 875.32 C 124.96 871.45 123.62 867.34 122.55 867.34 C 121.21 867.34 120.00 869.76 120.00 870.85 C 120.00 875.19 120.85 881.96 122.19 884.73 C 122.41 885.34 123.15 886.05 124.72 886.79 C 126.77 887.75 132.07 889.68 140.90 889.68 C 159.01 889.68 166.01 878.09 166.01 868.44 C 166.01 856.12 154.41 846.95 147.54 842.48 C 141.37 838.50 131.47 832.33 131.47 824.61 C 131.47 816.52 137.88 811.58 145.35 811.58 C 152.13 811.58 157.67 815.56 158.88 822.56 C 159.24 824.37 160.82 825.93 163.10 825.93 C 163.71 825.93 163.95 824.73 163.95 822.92 C 163.95 819.18 162.99 813.14 162.86 812.79 C 162.63 811.58 161.90 809.99 160.82 809.99 C 159.61 809.99 154.18 807.58 146.45 807.58 C 131.96 807.58 122.19 817.24 122.19 827.75 C 122.19 837.40 129.05 843.69 137.51 849.36 C 147.41 856.00 155.86 863.85 155.86 871.81 C 155.86 880.26 151.03 885.70 141.98 885.70 Z M 196.55 875.43 L 196.55 852.25 C 196.55 849.48 197.87 849.12 200.66 849.12 L 211.89 849.12 C 213.94 849.12 216.23 850.82 217.43 854.55 C 217.68 855.40 218.64 857.32 220.21 857.32 C 221.19 857.32 221.30 856.36 221.30 855.27 C 221.30 854.31 221.06 849.48 221.06 847.06 C 221.06 845.14 221.41 841.52 221.41 840.42 C 221.41 839.22 220.45 838.50 219.85 838.50 C 219.24 838.50 217.92 839.95 217.68 840.55 C 216.47 843.33 213.81 845.25 210.32 845.25 L 198.72 845.25 C 197.51 845.25 196.55 844.04 196.55 842.59 L 196.55 817.01 C 196.55 814.71 199.57 813.14 200.89 813.14 L 216.72 813.14 C 219.73 813.14 222.51 813.86 224.81 816.41 C 225.88 817.62 226.62 820.39 227.45 823.05 C 227.70 823.88 227.94 824.26 228.79 824.26 C 229.51 824.26 230.47 823.88 230.47 822.44 C 230.47 819.18 229.51 814.60 228.66 809.99 C 228.54 809.16 227.34 808.92 226.49 808.92 C 225.28 808.92 210.68 809.28 199.68 809.28 C 191.23 809.28 187.38 808.92 178.33 808.92 C 176.27 808.92 174.82 809.28 174.82 810.24 C 174.82 811.33 176.03 812.18 178.80 812.65 C 184.84 813.75 186.89 815.67 186.89 821.46 L 186.89 875.79 C 186.89 881.60 183.99 883.77 177.95 884.85 C 175.18 885.34 173.97 885.94 173.97 887.04 C 173.97 888.00 175.42 888.36 177.48 888.36 C 183.99 888.36 185.93 887.64 191.36 887.64 C 203.44 887.64 215.38 888.36 230.85 888.36 C 231.81 888.36 232.28 887.39 232.52 886.30 C 233.37 883.17 234.58 876.04 234.58 873.87 C 234.58 872.91 233.86 872.66 233.02 872.55 C 232.17 872.42 231.81 872.77 231.32 873.76 C 230.36 875.79 228.43 879.66 226.24 881.36 C 224.68 882.57 223.11 883.53 217.08 883.53 L 204.51 883.53 C 199.08 883.53 196.55 881.60 196.55 875.43 Z M 281.18 875.43 L 281.18 820.39 C 281.18 815.43 281.78 814.82 287.95 814.82 L 299.42 814.82 C 307.13 814.82 309.92 817.01 310.53 820.39 C 311.13 823.52 311.60 825.33 312.81 825.33 C 314.02 825.33 314.75 822.92 314.75 821.46 L 314.75 820.03 C 314.75 816.88 315.58 812.54 316.68 808.07 C 316.68 807.83 316.79 807.35 316.79 806.98 C 316.79 805.77 316.43 804.20 315.96 804.20 C 314.15 804.20 312.34 806.86 309.92 808.56 C 308.72 809.39 306.42 810.24 302.91 810.24 L 256.92 810.24 C 253.54 810.24 249.43 809.52 248.47 807.83 C 247.75 806.50 246.05 803.96 245.45 803.96 C 244.84 803.96 243.75 804.09 243.39 806.75 C 242.67 811.81 241.82 815.56 239.66 820.14 C 239.30 820.86 239.05 821.84 239.05 822.56 C 239.05 823.41 239.30 824.12 239.90 824.12 C 241.71 824.12 244.13 820.86 244.84 819.54 C 246.54 816.41 250.88 814.82 254.75 814.82 L 260.42 814.82 C 264.52 814.82 267.07 814.82 269.35 815.31 C 271.29 815.67 271.52 818.33 271.52 820.50 L 271.52 875.43 C 271.52 881.23 268.14 883.77 262.10 884.85 C 259.33 885.34 258.12 885.94 258.12 887.04 C 258.12 888.00 259.58 888.36 261.63 888.36 C 268.14 888.36 271.05 887.75 277.08 887.75 C 282.63 887.75 284.68 888.36 291.21 888.36 C 293.25 888.36 294.70 888.00 294.70 887.04 C 294.70 885.94 293.49 885.34 290.72 884.85 C 284.68 883.77 281.18 881.23 281.18 875.43 Z M 362.07 875.43 L 362.07 820.39 C 362.07 815.43 362.67 814.82 368.84 814.82 L 380.31 814.82 C 388.02 814.82 390.81 817.01 391.42 820.39 C 392.02 823.52 392.49 825.33 393.70 825.33 C 394.91 825.33 395.64 822.92 395.64 821.46 L 395.64 820.03 C 395.64 816.88 396.47 812.54 397.57 808.07 C 397.57 807.83 397.68 807.35 397.68 806.98 C 397.68 805.77 397.32 804.20 396.85 804.20 C 395.04 804.20 393.23 806.86 390.81 808.56 C 389.61 809.39 387.31 810.24 383.80 810.24 L 337.81 810.24 C 334.43 810.24 330.32 809.52 329.35 807.83 C 328.64 806.50 326.94 803.96 326.34 803.96 C 325.73 803.96 324.64 804.09 324.28 806.75 C 323.56 811.81 322.71 815.56 320.55 820.14 C 320.19 820.86 319.94 821.84 319.94 822.56 C 319.94 823.41 320.19 824.12 320.79 824.12 C 322.60 824.12 325.02 820.86 325.73 819.54 C 327.43 816.41 331.77 814.82 335.64 814.82 L 341.31 814.82 C 345.41 814.82 347.95 814.82 350.24 815.31 C 352.18 815.67 352.41 818.33 352.41 820.50 L 352.41 875.43 C 352.41 881.23 349.03 883.77 342.99 884.85 C 340.22 885.34 339.01 885.94 339.01 887.04 C 339.01 888.00 340.47 888.36 342.52 888.36 C 349.03 888.36 351.94 887.75 357.97 887.75 C 363.52 887.75 365.57 888.36 372.10 888.36 C 374.14 888.36 375.59 888.00 375.59 887.04 C 375.59 885.94 374.38 885.34 371.61 884.85 C 365.57 883.77 362.07 881.23 362.07 875.43 Z M 422.92 819.29 C 422.92 814.60 427.64 813.75 433.67 812.65 C 436.45 812.18 437.65 811.33 437.65 810.24 C 437.65 809.28 436.20 808.92 434.15 808.92 C 427.64 808.92 424.85 809.28 418.94 809.28 C 413.62 809.28 411.94 808.92 405.41 808.92 C 403.36 808.92 401.91 809.28 401.91 810.24 C 401.91 811.33 403.11 812.18 405.91 812.65 C 411.94 813.75 413.26 814.35 413.26 820.14 L 413.26 876.17 C 413.26 881.47 409.75 883.64 403.49 884.85 C 403.00 884.98 400.83 885.45 400.83 886.90 C 400.83 887.75 402.04 888.36 404.21 888.36 C 404.21 888.36 414.47 887.75 420.51 887.75 C 432.58 887.75 445.75 888.36 461.91 888.36 C 463.12 888.36 463.48 887.39 463.61 886.30 C 464.08 881.23 465.18 877.25 466.87 870.96 C 466.87 870.85 466.99 870.61 466.99 870.36 C 466.99 869.40 466.50 868.19 465.54 868.19 C 464.46 868.19 463.25 870.85 462.88 871.81 C 460.84 876.17 459.74 877.60 456.61 880.40 C 454.42 882.32 450.44 883.53 449.84 883.53 L 432.22 883.53 C 424.24 883.53 422.92 881.11 422.92 876.17 L 422.92 819.29 Z M 493.43 875.43 L 493.43 852.25 C 493.43 849.48 494.75 849.12 497.54 849.12 L 508.76 849.12 C 510.82 849.12 513.10 850.82 514.31 854.55 C 514.56 855.40 515.52 857.32 517.08 857.32 C 518.06 857.32 518.18 856.36 518.18 855.27 C 518.18 854.31 517.93 849.48 517.93 847.06 C 517.93 845.14 518.29 841.52 518.29 840.42 C 518.29 839.22 517.33 838.50 516.72 838.50 C 516.12 838.50 514.80 839.95 514.56 840.55 C 513.35 843.33 510.69 845.25 507.20 845.25 L 495.60 845.25 C 494.39 845.25 493.43 844.04 493.43 842.59 L 493.43 817.01 C 493.43 814.71 496.45 813.14 497.77 813.14 L 513.59 813.14 C 516.61 813.14 519.38 813.86 521.69 816.41 C 522.76 817.62 523.50 820.39 524.33 823.05 C 524.57 823.88 524.82 824.26 525.67 824.26 C 526.38 824.26 527.35 823.88 527.35 822.44 C 527.35 819.18 526.38 814.60 525.53 809.99 C 525.42 809.16 524.21 808.92 523.37 808.92 C 522.16 808.92 507.56 809.28 496.56 809.28 C 488.11 809.28 484.26 808.92 475.20 808.92 C 473.15 808.92 471.70 809.28 471.70 810.24 C 471.70 811.33 472.90 812.18 475.68 812.65 C 481.71 813.75 483.77 815.67 483.77 821.46 L 483.77 875.79 C 483.77 881.60 480.86 883.77 474.83 884.85 C 472.05 885.34 470.85 885.94 470.85 887.04 C 470.85 888.00 472.30 888.36 474.36 888.36 C 480.86 888.36 482.81 887.64 488.24 887.64 C 500.31 887.64 512.25 888.36 527.72 888.36 C 528.68 888.36 529.16 887.39 529.40 886.30 C 530.25 883.17 531.46 876.04 531.46 873.87 C 531.46 872.91 530.74 872.66 529.89 872.55 C 529.04 872.42 528.68 872.77 528.19 873.76 C 527.23 875.79 525.31 879.66 523.12 881.36 C 521.55 882.57 519.99 883.53 513.95 883.53 L 501.39 883.53 C 495.96 883.53 493.43 881.60 493.43 875.43 Z M 621.40 819.18 C 621.40 815.31 627.33 813.75 631.42 812.54 C 632.15 812.30 634.57 811.09 634.57 809.77 C 634.57 808.67 632.76 808.56 632.02 808.56 L 631.66 808.56 C 629.25 808.56 623.46 809.52 618.27 809.52 L 613.91 809.52 C 612.10 809.52 612.35 816.28 610.54 820.14 L 586.75 869.64 C 586.28 870.61 585.79 871.10 585.43 871.10 C 584.94 871.10 584.47 870.49 583.98 869.28 L 564.90 820.86 C 563.70 817.62 562.73 809.64 560.55 809.64 C 557.41 809.64 544.98 808.67 540.51 808.67 C 539.80 808.67 537.74 808.79 537.74 809.99 C 537.74 811.09 538.70 811.81 539.42 812.05 C 542.32 812.79 547.04 813.39 549.45 816.16 C 550.77 817.73 551.27 818.69 551.27 820.03 C 551.27 820.75 551.38 821.60 551.38 822.80 C 551.38 832.93 549.32 853.70 546.44 875.43 C 546.19 877.00 544.98 883.77 538.95 884.85 C 536.17 885.34 534.97 885.94 534.97 887.04 C 534.97 888.00 536.40 888.36 538.46 888.36 C 544.98 888.36 545.10 887.75 549.45 887.75 C 553.91 887.75 554.28 888.36 560.79 888.36 C 562.85 888.36 564.30 888.00 564.30 887.04 C 564.30 885.94 563.09 885.34 560.32 884.85 C 554.40 883.77 552.47 878.58 552.47 875.43 C 552.47 859.02 554.04 847.91 556.32 830.90 C 556.57 829.09 557.17 829.20 557.91 830.90 C 566.96 852.02 573.22 866.98 579.50 885.83 C 580.11 887.64 580.60 888.96 581.20 888.96 C 581.67 888.96 582.28 888.11 583.26 886.05 L 610.05 831.73 C 610.65 830.52 611.14 829.80 611.39 829.80 C 611.74 829.80 611.99 830.41 611.99 831.73 C 612.71 848.02 613.44 858.78 613.44 876.17 C 613.44 881.83 611.99 884.24 607.27 884.85 C 604.50 885.22 603.29 885.94 603.29 887.04 C 603.29 888.00 604.75 888.36 606.80 888.36 C 613.31 888.36 614.52 887.75 619.48 887.75 C 625.02 887.75 627.08 888.36 633.59 888.36 C 635.64 888.36 637.10 888.00 637.10 887.04 C 637.10 885.94 635.89 885.34 633.12 884.85 C 627.08 883.77 624.31 881.23 624.06 876.28 C 623.10 858.06 621.40 841.63 621.40 819.18 Z M 666.80 875.43 L 666.80 852.25 C 666.80 849.48 668.12 849.12 670.91 849.12 L 682.13 849.12 C 684.19 849.12 686.47 850.82 687.68 854.55 C 687.92 855.40 688.89 857.32 690.45 857.32 C 691.43 857.32 691.55 856.36 691.55 855.27 C 691.55 854.31 691.30 849.48 691.30 847.06 C 691.30 845.14 691.66 841.52 691.66 840.42 C 691.66 839.22 690.70 838.50 690.09 838.50 C 689.49 838.50 688.17 839.95 687.92 840.55 C 686.72 843.33 684.06 845.25 680.57 845.25 L 668.97 845.25 C 667.76 845.25 666.80 844.04 666.80 842.59 L 666.80 817.01 C 666.80 814.71 669.82 813.14 671.14 813.14 L 686.96 813.14 C 689.98 813.14 692.75 813.86 695.06 816.41 C 696.13 817.62 696.87 820.39 697.70 823.05 C 697.94 823.88 698.19 824.26 699.04 824.26 C 699.75 824.26 700.71 823.88 700.71 822.44 C 700.71 819.18 699.75 814.60 698.90 809.99 C 698.79 809.16 697.58 808.92 696.73 808.92 C 695.53 808.92 680.93 809.28 669.93 809.28 C 661.48 809.28 657.63 808.92 648.57 808.92 C 646.52 808.92 645.07 809.28 645.07 810.24 C 645.07 811.33 646.27 812.18 649.05 812.65 C 655.08 813.75 657.14 815.67 657.14 821.46 L 657.14 875.79 C 657.14 881.60 654.23 883.77 648.20 884.85 C 645.42 885.34 644.22 885.94 644.22 887.04 C 644.22 888.00 645.67 888.36 647.73 888.36 C 654.23 888.36 656.18 887.64 661.61 887.64 C 673.68 887.64 685.62 888.36 701.09 888.36 C 702.05 888.36 702.53 887.39 702.77 886.30 C 703.62 883.17 704.83 876.04 704.83 873.87 C 704.83 872.91 704.11 872.66 703.26 872.55 C 702.41 872.42 702.05 872.77 701.56 873.76 C 700.60 875.79 698.68 879.66 696.49 881.36 C 694.92 882.57 693.36 883.53 687.32 883.53 L 674.76 883.53 C 669.32 883.53 666.80 881.60 666.80 875.43 Z M 780.40 809.28 L 773.53 809.28 C 771.47 809.28 770.02 809.64 770.02 810.60 C 770.02 811.69 771.23 812.54 774.00 813.01 C 776.66 813.50 780.89 816.52 781.00 819.65 L 781.00 830.16 C 781.00 843.69 780.89 864.93 780.77 868.79 C 780.64 870.61 780.17 871.34 779.57 871.34 C 778.59 871.34 777.15 869.64 776.55 868.93 C 774.13 866.02 732.84 814.22 730.54 810.98 C 729.69 809.88 729.09 808.92 727.65 808.92 C 718.96 808.92 718.47 808.56 709.05 808.32 C 708.20 808.32 706.28 808.56 706.28 809.99 C 706.28 811.45 709.30 812.65 710.01 812.90 C 717.15 815.20 721.97 817.97 721.97 826.54 C 721.97 846.46 720.77 865.78 719.81 874.83 C 719.31 879.79 717.39 883.53 712.79 884.73 C 710.01 885.45 708.81 885.94 708.81 887.04 C 708.81 888.00 710.26 888.36 712.32 888.36 C 718.82 888.36 718.96 887.75 723.30 887.75 C 727.77 887.75 728.12 888.36 734.65 888.36 C 736.71 888.36 738.14 888.00 738.14 887.04 C 738.14 885.94 736.93 885.34 734.16 884.85 C 728.12 883.77 726.45 879.55 726.45 875.19 C 726.45 860.34 726.80 841.88 727.05 829.92 C 727.05 828.95 727.28 827.39 728.12 827.39 C 728.73 827.39 729.46 827.88 730.67 829.31 C 733.44 832.71 771.47 879.19 773.64 882.21 C 777.51 887.51 781.98 889.81 783.42 889.81 C 784.62 889.81 785.96 889.32 785.96 886.79 C 785.96 880.15 786.08 822.07 786.21 819.18 C 786.32 815.20 787.77 813.75 793.81 812.65 C 796.58 812.18 797.79 811.33 797.79 810.24 C 797.79 809.28 796.34 808.92 794.28 808.92 C 786.92 808.92 786.21 809.28 780.40 809.28 Z M 844.38 875.43 L 844.38 820.39 C 844.38 815.43 844.99 814.82 851.16 814.82 L 862.63 814.82 C 870.34 814.82 873.13 817.01 873.74 820.39 C 874.34 823.52 874.81 825.33 876.02 825.33 C 877.23 825.33 877.96 822.92 877.96 821.46 L 877.96 820.03 C 877.96 816.88 878.79 812.54 879.89 808.07 C 879.89 807.83 880.00 807.35 880.00 806.98 C 880.00 805.77 879.64 804.20 879.17 804.20 C 877.36 804.20 875.55 806.86 873.13 808.56 C 871.93 809.39 869.62 810.24 866.12 810.24 L 820.13 810.24 C 816.75 810.24 812.64 809.52 811.67 807.83 C 810.96 806.50 809.26 803.96 808.66 803.96 C 808.05 803.96 806.96 804.09 806.60 806.75 C 805.88 811.81 805.03 815.56 802.86 820.14 C 802.51 820.86 802.26 821.84 802.26 822.56 C 802.26 823.41 802.51 824.12 803.11 824.12 C 804.92 824.12 807.34 820.86 808.05 819.54 C 809.75 816.41 814.09 814.82 817.96 814.82 L 823.63 814.82 C 827.73 814.82 830.27 814.82 832.56 815.31 C 834.50 815.67 834.73 818.33 834.73 820.50 L 834.73 875.43 C 834.73 881.23 831.35 883.77 825.31 884.85 C 822.54 885.34 821.33 885.94 821.33 887.04 C 821.33 888.00 822.78 888.36 824.84 888.36 C 831.35 888.36 834.25 887.75 840.29 887.75 C 845.84 887.75 847.89 888.36 854.42 888.36 C 856.46 888.36 857.91 888.00 857.91 887.04 C 857.91 885.94 856.70 885.34 853.93 884.85 C 847.89 883.77 844.38 881.23 844.38 875.43 Z" fill="#1D4667" /><path d="M 368.83 986.15 C 362.66 986.15 359.28 984.34 359.28 977.59 L 359.28 953.55 C 359.28 951.99 360.98 949.22 366.17 949.22 C 372.20 949.22 376.54 951.03 378.73 952.23 C 381.98 954.05 387.65 958.52 387.65 967.80 C 387.65 978.19 378.24 986.15 368.83 986.15 Z M 355.66 990.62 C 360.49 990.62 364.96 991.11 367.13 991.11 C 375.11 991.11 381.37 989.53 386.45 987.00 C 391.41 984.47 399.01 980.47 399.01 967.19 C 399.01 953.20 389.11 949.57 381.86 947.27 C 381.15 947.05 381.26 946.31 381.86 946.07 C 385.84 944.50 387.41 943.29 389.96 940.88 C 391.77 939.07 394.05 934.73 394.05 929.30 C 394.05 916.13 384.88 911.30 367.26 911.30 C 360.24 911.30 358.43 911.90 353.85 911.90 C 348.91 911.90 347.81 911.79 341.31 911.79 C 339.25 911.79 337.80 912.15 337.80 913.11 C 337.80 914.20 339.00 915.28 341.78 915.52 C 347.70 916.01 349.87 918.54 349.87 924.33 L 349.87 978.66 C 349.87 984.47 346.49 986.64 340.46 987.72 C 337.68 988.21 336.48 988.81 336.48 989.91 C 336.48 990.87 337.91 991.23 339.97 991.23 C 346.96 991.23 349.38 990.62 355.66 990.62 Z M 364.85 945.84 C 362.90 945.84 359.28 945.59 359.28 941.37 L 359.28 920.35 C 359.28 916.73 360.62 914.92 367.26 914.92 C 380.90 914.92 383.67 923.98 383.67 930.86 C 383.67 937.86 379.94 941.37 378.24 942.33 C 373.41 945.24 367.98 945.84 364.85 945.84 Z M 444.16 925.18 C 444.65 923.86 444.89 923.13 445.12 923.13 C 445.50 923.13 445.72 923.86 446.21 925.31 L 455.76 954.16 C 455.87 954.65 455.98 955.12 455.98 955.37 C 455.98 955.97 455.51 955.97 454.31 955.97 L 435.59 955.97 C 434.03 955.97 433.05 955.97 433.05 955.12 C 433.05 954.89 433.18 954.52 433.29 954.16 L 444.16 925.18 Z M 484.60 991.23 C 486.66 991.23 488.11 990.98 488.11 990.02 C 488.11 988.92 486.90 987.72 484.13 987.25 C 479.30 986.40 475.30 984.83 471.92 975.17 C 467.94 963.70 458.17 935.20 450.44 910.70 C 450.08 909.62 449.83 907.81 449.23 907.81 C 448.63 907.81 448.38 910.94 446.70 912.03 C 445.25 913.00 443.80 913.36 442.35 913.85 C 442.10 913.96 442.48 915.77 440.67 920.84 C 432.57 943.18 427.14 956.93 418.09 977.59 C 415.43 983.62 411.80 985.68 407.69 986.89 C 405.05 987.72 403.71 988.57 403.71 989.66 C 403.71 990.62 405.16 991.23 407.22 991.23 C 411.20 991.23 416.39 990.51 421.71 990.51 C 426.18 990.51 430.52 990.74 432.69 990.74 C 434.74 990.74 436.20 990.38 436.20 989.42 C 436.20 988.32 434.99 987.72 432.22 987.00 C 428.35 986.04 425.20 983.62 425.20 980.12 C 425.20 978.55 428.95 966.48 430.03 963.35 C 430.63 961.65 431.37 961.16 432.08 961.16 L 455.15 961.16 C 457.32 961.16 458.04 961.29 458.40 962.50 C 460.21 968.53 463.00 977.95 463.00 981.45 C 463.00 984.10 460.95 986.04 455.63 986.89 C 453.46 987.25 451.65 988.09 451.65 989.17 C 451.65 990.13 453.10 990.62 455.15 990.62 C 458.04 990.62 463.11 990.51 467.83 990.51 C 473.26 990.51 481.22 991.23 484.60 991.23 Z M 561.87 912.15 L 555.00 912.15 C 552.94 912.15 551.49 912.51 551.49 913.47 C 551.49 914.56 552.70 915.41 555.47 915.88 C 558.13 916.37 562.36 919.39 562.47 922.52 L 562.47 933.03 C 562.47 946.56 562.36 967.80 562.24 971.66 C 562.11 973.48 561.64 974.21 561.04 974.21 C 560.05 974.21 558.62 972.51 558.02 971.80 C 555.60 968.89 514.31 917.09 512.01 913.85 C 511.16 912.75 510.55 911.79 509.12 911.79 C 500.42 911.79 499.93 911.43 490.52 911.19 C 489.67 911.19 487.75 911.43 487.75 912.86 C 487.75 914.32 490.77 915.52 491.48 915.77 C 498.61 918.07 503.44 920.84 503.44 929.41 C 503.44 949.33 502.24 968.65 501.27 977.70 C 500.78 982.66 498.86 986.40 494.26 987.60 C 491.48 988.32 490.28 988.81 490.28 989.91 C 490.28 990.87 491.73 991.23 493.78 991.23 C 500.29 991.23 500.42 990.62 504.76 990.62 C 509.23 990.62 509.59 991.23 516.12 991.23 C 518.18 991.23 519.61 990.87 519.61 989.91 C 519.61 988.81 518.40 988.21 515.63 987.72 C 509.59 986.64 507.91 982.42 507.91 978.06 C 507.91 963.21 508.27 944.75 508.52 932.79 C 508.52 931.82 508.74 930.26 509.59 930.26 C 510.20 930.26 510.93 930.75 512.14 932.18 C 514.91 935.58 552.94 982.06 555.11 985.08 C 558.98 990.38 563.45 992.68 564.88 992.68 C 566.09 992.68 567.43 992.19 567.43 989.66 C 567.43 983.02 567.54 924.94 567.68 922.05 C 567.79 918.07 569.24 916.62 575.28 915.52 C 578.05 915.05 579.26 914.20 579.26 913.11 C 579.26 912.15 577.81 911.79 575.75 911.79 C 568.39 911.79 567.68 912.15 561.87 912.15 Z M 660.03 991.23 C 662.07 991.23 663.52 990.87 663.52 989.91 C 663.52 988.81 662.32 988.32 659.54 987.72 C 652.66 986.28 651.45 984.94 646.26 979.15 L 617.04 948.01 C 616.19 947.16 615.84 946.44 616.44 945.84 C 624.89 936.54 630.93 930.62 639.62 923.26 C 645.17 918.54 651.94 916.37 657.98 915.28 C 660.75 914.81 661.96 913.96 661.96 912.86 C 661.96 912.03 660.86 911.54 659.30 911.54 C 657.73 911.54 646.62 912.03 639.74 912.03 L 633.23 912.03 C 631.17 912.03 629.72 912.39 629.72 913.36 C 629.72 914.45 630.68 915.05 633.47 915.77 C 634.91 916.13 635.76 917.22 635.76 918.54 C 635.76 919.64 635.15 920.96 633.95 922.16 L 609.80 946.80 C 608.95 947.76 607.38 948.97 606.54 948.97 C 605.93 948.97 605.93 947.27 605.93 946.67 L 605.93 924.11 C 605.93 919.39 606.42 916.62 612.46 915.52 C 615.23 915.05 616.44 914.20 616.44 913.11 C 616.44 912.15 614.99 911.79 612.95 911.79 C 606.42 911.79 605.82 912.03 601.23 912.03 C 595.91 912.03 594.24 911.79 587.71 911.79 C 585.65 911.79 584.20 912.15 584.20 913.11 C 584.20 914.20 585.41 915.05 588.20 915.52 C 594.24 916.62 596.27 918.54 596.27 924.11 L 596.27 978.44 C 596.27 984.47 594.24 986.64 588.20 987.72 C 585.41 988.21 584.20 988.81 584.20 989.91 C 584.20 990.87 585.65 991.23 587.71 991.23 C 594.24 991.23 597.01 990.38 602.91 990.38 C 607.52 990.38 608.23 991.23 614.76 991.23 C 616.80 991.23 618.25 990.87 618.25 989.91 C 618.25 988.81 617.04 988.21 614.27 987.72 C 608.23 986.64 606.78 982.53 606.54 977.34 C 606.18 967.68 605.93 961.76 605.93 954.16 C 605.93 953.31 605.82 951.63 606.42 951.63 C 607.03 951.63 608.23 952.71 609.20 953.69 L 634.79 981.93 C 635.76 983.02 636.60 983.98 636.60 984.94 C 636.60 985.91 635.64 986.76 633.23 987.36 C 630.93 987.85 629.96 988.32 629.96 989.42 C 629.96 990.38 631.42 990.74 633.47 990.74 C 638.91 990.74 640.23 990.62 643.25 990.62 C 649.89 990.62 652.90 991.23 660.03 991.23 Z" fill="#1D4667" /></svg>