<?xml version="1.0" encoding="utf-8" ?>
<svg baseProfile="full" height="700" version="1.1" viewBox="0 0 900 700" width="900" xmlns="http://www.w3.org/2000/svg" xmlns:ev="http://www.w3.org/2001/xml-events" xmlns:xlink="http://www.w3.org/1999/xlink"><defs /><path d="M 811.00 1367.00 L 807.00 1371.00 L 806.00 1382.00 L 799.00 1393.00 L 798.00 1401.00 L 795.00 1405.00 L 762.00 1406.00 L 758.00 1409.00 L 758.00 1415.00 L 760.00 1418.00 L 779.00 1433.00 L 783.00 1438.00 L 783.00 1451.00 L 776.00 1468.00 L 776.00 1478.00 L 779.00 1481.00 L 785.00 1481.00 L 793.00 1473.00 L 802.00 1470.00 L 808.00 1465.00 L 815.00 1464.00 L 827.00 1467.00 L 835.00 1473.00 L 840.00 1480.00 L 844.00 1482.00 L 851.00 1481.00 L 855.00 1479.00 L 856.00 1471.00 L 849.00 1453.00 L 849.00 1437.00 L 853.00 1433.00 L 860.00 1431.00 L 872.00 1419.00 L 874.00 1415.00 L 874.00 1410.00 L 870.00 1407.00 L 837.00 1405.00 L 833.00 1401.00 L 832.00 1395.00 L 826.00 1387.00 L 824.00 1378.00 L 821.00 1373.00 L 816.00 1368.00 Z M 1002.00 1353.00 L 999.00 1357.00 L 997.00 1367.00 L 991.00 1376.00 L 989.00 1388.00 L 983.00 1396.00 L 974.00 1399.00 L 939.00 1399.00 L 932.00 1404.00 L 932.00 1410.00 L 945.00 1423.00 L 951.00 1426.00 L 966.00 1441.00 L 968.00 1445.00 L 966.00 1463.00 L 961.00 1470.00 L 958.00 1479.00 L 958.00 1485.00 L 963.00 1493.00 L 967.00 1494.00 L 972.00 1489.00 L 989.00 1479.00 L 995.00 1472.00 L 1005.00 1471.00 L 1018.00 1474.00 L 1037.00 1489.00 L 1040.00 1495.00 L 1046.00 1495.00 L 1047.00 1490.00 L 1052.00 1485.00 L 1052.00 1480.00 L 1049.00 1475.00 L 1047.00 1459.00 L 1041.00 1449.00 L 1041.00 1444.00 L 1060.00 1425.00 L 1070.00 1422.00 L 1075.00 1411.00 L 1075.00 1406.00 L 1063.00 1400.00 L 1049.00 1401.00 L 1046.00 1399.00 L 1040.00 1399.00 L 1032.00 1401.00 L 1028.00 1399.00 L 1018.00 1382.00 L 1016.00 1368.00 L 1013.00 1361.00 L 1008.00 1354.00 Z M 643.00 1336.00 L 639.00 1336.00 L 633.00 1340.00 L 631.00 1344.00 L 630.00 1358.00 L 622.00 1365.00 L 616.00 1367.00 L 594.00 1367.00 L 590.00 1368.00 L 587.00 1371.00 L 587.00 1376.00 L 589.00 1380.00 L 600.00 1391.00 L 605.00 1393.00 L 611.00 1401.00 L 611.00 1405.00 L 606.00 1416.00 L 606.00 1429.00 L 608.00 1433.00 L 614.00 1434.00 L 622.00 1431.00 L 635.00 1419.00 L 641.00 1420.00 L 653.00 1432.00 L 659.00 1434.00 L 669.00 1432.00 L 673.00 1428.00 L 674.00 1423.00 L 672.00 1417.00 L 665.00 1410.00 L 666.00 1398.00 L 669.00 1394.00 L 680.00 1390.00 L 683.00 1386.00 L 691.00 1382.00 L 691.00 1375.00 L 681.00 1367.00 L 658.00 1366.00 L 649.00 1352.00 L 647.00 1339.00 Z M 1203.00 1313.00 L 1199.00 1314.00 L 1192.00 1321.00 L 1190.00 1338.00 L 1177.00 1354.00 L 1172.00 1357.00 L 1160.00 1359.00 L 1139.00 1357.00 L 1136.00 1358.00 L 1132.00 1364.00 L 1148.00 1376.00 L 1155.00 1385.00 L 1162.00 1388.00 L 1166.00 1392.00 L 1166.00 1409.00 L 1159.00 1419.00 L 1160.00 1434.00 L 1164.00 1438.00 L 1167.00 1438.00 L 1179.00 1431.00 L 1186.00 1424.00 L 1190.00 1423.00 L 1195.00 1418.00 L 1200.00 1416.00 L 1203.00 1417.00 L 1221.00 1432.00 L 1228.00 1434.00 L 1238.00 1433.00 L 1241.00 1430.00 L 1241.00 1422.00 L 1233.00 1401.00 L 1233.00 1392.00 L 1238.00 1386.00 L 1243.00 1384.00 L 1249.00 1377.00 L 1256.00 1374.00 L 1267.00 1365.00 L 1267.00 1362.00 L 1260.00 1358.00 L 1223.00 1357.00 L 1218.00 1352.00 L 1215.00 1344.00 L 1209.00 1340.00 L 1208.00 1320.00 L 1206.00 1315.00 Z M 470.00 1282.00 L 464.00 1287.00 L 458.00 1305.00 L 452.00 1312.00 L 435.00 1312.00 L 424.00 1320.00 L 423.00 1325.00 L 434.00 1334.00 L 442.00 1338.00 L 446.00 1343.00 L 446.00 1349.00 L 439.00 1358.00 L 439.00 1365.00 L 442.00 1370.00 L 447.00 1373.00 L 452.00 1373.00 L 462.00 1367.00 L 466.00 1361.00 L 474.00 1360.00 L 480.00 1367.00 L 491.00 1374.00 L 495.00 1374.00 L 501.00 1370.00 L 504.00 1365.00 L 504.00 1356.00 L 497.00 1349.00 L 497.00 1345.00 L 514.00 1330.00 L 521.00 1327.00 L 523.00 1323.00 L 520.00 1319.00 L 506.00 1314.00 L 492.00 1314.00 L 486.00 1306.00 L 485.00 1300.00 L 478.00 1285.00 L 474.00 1282.00 Z M 1379.00 1246.00 L 1375.00 1246.00 L 1369.00 1251.00 L 1364.00 1272.00 L 1359.00 1281.00 L 1354.00 1286.00 L 1338.00 1286.00 L 1329.00 1284.00 L 1322.00 1286.00 L 1316.00 1290.00 L 1318.00 1295.00 L 1322.00 1297.00 L 1338.00 1312.00 L 1341.00 1313.00 L 1345.00 1318.00 L 1346.00 1323.00 L 1342.00 1331.00 L 1343.00 1341.00 L 1341.00 1349.00 L 1344.00 1356.00 L 1348.00 1358.00 L 1358.00 1351.00 L 1372.00 1337.00 L 1375.00 1337.00 L 1382.00 1343.00 L 1388.00 1345.00 L 1393.00 1351.00 L 1401.00 1356.00 L 1405.00 1356.00 L 1413.00 1350.00 L 1414.00 1344.00 L 1410.00 1337.00 L 1410.00 1327.00 L 1406.00 1317.00 L 1409.00 1313.00 L 1414.00 1311.00 L 1420.00 1304.00 L 1428.00 1299.00 L 1433.00 1293.00 L 1432.00 1288.00 L 1428.00 1286.00 L 1395.00 1285.00 L 1386.00 1272.00 L 1383.00 1251.00 Z M 312.00 1222.00 L 310.00 1236.00 L 301.00 1246.00 L 282.00 1246.00 L 279.00 1247.00 L 276.00 1251.00 L 278.00 1260.00 L 285.00 1266.00 L 293.00 1276.00 L 293.00 1279.00 L 287.00 1288.00 L 287.00 1297.00 L 293.00 1303.00 L 300.00 1304.00 L 314.00 1289.00 L 318.00 1289.00 L 334.00 1303.00 L 342.00 1303.00 L 349.00 1294.00 L 349.00 1290.00 L 342.00 1275.00 L 350.00 1265.00 L 359.00 1261.00 L 360.00 1251.00 L 356.00 1246.00 L 331.00 1246.00 L 328.00 1242.00 L 328.00 1233.00 L 323.00 1225.00 L 318.00 1221.00 Z M 1494.00 1224.00 L 1494.00 1230.00 L 1503.00 1238.00 L 1511.00 1242.00 L 1519.00 1252.00 L 1517.00 1264.00 L 1511.00 1273.00 L 1512.00 1279.00 L 1516.00 1281.00 L 1525.00 1281.00 L 1534.00 1275.00 L 1547.00 1272.00 L 1554.00 1272.00 L 1562.00 1280.00 L 1575.00 1283.00 L 1581.00 1281.00 L 1581.00 1274.00 L 1577.00 1267.00 L 1576.00 1258.00 L 1573.00 1252.00 L 1591.00 1234.00 L 1593.00 1225.00 L 1588.00 1219.00 L 1582.00 1216.00 L 1578.00 1217.00 L 1573.00 1222.00 L 1568.00 1222.00 L 1562.00 1216.00 L 1558.00 1204.00 L 1553.00 1199.00 L 1551.00 1186.00 L 1548.00 1185.00 L 1543.00 1188.00 L 1541.00 1195.00 L 1535.00 1202.00 L 1535.00 1210.00 L 1532.00 1214.00 L 1522.00 1219.00 L 1506.00 1217.00 L 1500.00 1219.00 Z M 1715.00 1184.00 L 1711.00 1188.00 L 1710.00 1197.00 L 1702.00 1206.00 L 1695.00 1209.00 L 1683.00 1210.00 L 1678.00 1215.00 L 1678.00 1221.00 L 1695.00 1237.00 L 1695.00 1242.00 L 1689.00 1250.00 L 1688.00 1257.00 L 1691.00 1263.00 L 1701.00 1264.00 L 1717.00 1254.00 L 1724.00 1256.00 L 1733.00 1264.00 L 1740.00 1265.00 L 1743.00 1264.00 L 1747.00 1259.00 L 1747.00 1251.00 L 1744.00 1244.00 L 1744.00 1235.00 L 1760.00 1221.00 L 1760.00 1214.00 L 1750.00 1207.00 L 1739.00 1208.00 L 1735.00 1206.00 L 1730.00 1201.00 L 1724.00 1186.00 L 1722.00 1184.00 Z M 1895.00 1176.00 L 1876.00 1150.00 L 1820.00 1109.00 L 1816.00 1103.00 L 1796.00 1093.00 L 1792.00 1087.00 L 1782.00 1085.00 L 1754.00 1065.00 L 1743.00 1062.00 L 1734.00 1055.00 L 1724.00 1054.00 L 1720.00 1048.00 L 1707.00 1046.00 L 1697.00 1039.00 L 1682.00 1038.00 L 1673.00 1031.00 L 1658.00 1030.00 L 1647.00 1022.00 L 1627.00 1021.00 L 1616.00 1014.00 L 1596.00 1015.00 L 1565.00 1007.00 L 1450.00 1007.00 L 1429.00 1013.00 L 1394.00 1015.00 L 1376.00 1022.00 L 1360.00 1023.00 L 1351.00 1029.00 L 1336.00 1031.00 L 1328.00 1037.00 L 1307.00 1039.00 L 1296.00 1045.00 L 1259.00 1055.00 L 1250.00 1062.00 L 1239.00 1064.00 L 1234.00 1070.00 L 1221.00 1072.00 L 1215.00 1078.00 L 1206.00 1080.00 L 1202.00 1087.00 L 1192.00 1087.00 L 1181.00 1095.00 L 1171.00 1096.00 L 1165.00 1102.00 L 1155.00 1104.00 L 1149.00 1110.00 L 1066.00 1152.00 L 1061.00 1158.00 L 1049.00 1160.00 L 1044.00 1167.00 L 1036.00 1167.00 L 1026.00 1175.00 L 1017.00 1176.00 L 1011.00 1183.00 L 1003.00 1183.00 L 996.00 1190.00 L 971.00 1199.00 L 961.00 1207.00 L 908.00 1224.00 L 901.00 1230.00 L 888.00 1232.00 L 882.00 1237.00 L 863.00 1239.00 L 821.00 1255.00 L 802.00 1255.00 L 784.00 1263.00 L 758.00 1263.00 L 729.00 1270.00 L 675.00 1270.00 L 663.00 1277.00 L 661.00 1295.00 L 666.00 1304.00 L 675.00 1305.00 L 684.00 1312.00 L 705.00 1312.00 L 726.00 1320.00 L 769.00 1320.00 L 791.00 1328.00 L 893.00 1329.00 L 928.00 1320.00 L 965.00 1319.00 L 999.00 1312.00 L 1010.00 1306.00 L 1031.00 1304.00 L 1041.00 1298.00 L 1077.00 1288.00 L 1087.00 1280.00 L 1103.00 1280.00 L 1113.00 1273.00 L 1125.00 1271.00 L 1153.00 1257.00 L 1163.00 1256.00 L 1173.00 1248.00 L 1222.00 1232.00 L 1230.00 1225.00 L 1239.00 1224.00 L 1245.00 1217.00 L 1259.00 1215.00 L 1266.00 1208.00 L 1276.00 1207.00 L 1285.00 1201.00 L 1297.00 1199.00 L 1306.00 1192.00 L 1318.00 1191.00 L 1326.00 1184.00 L 1360.00 1175.00 L 1369.00 1169.00 L 1382.00 1168.00 L 1391.00 1161.00 L 1406.00 1162.00 L 1417.00 1153.00 L 1438.00 1152.00 L 1451.00 1145.00 L 1470.00 1145.00 L 1492.00 1136.00 L 1518.00 1136.00 L 1533.00 1129.00 L 1651.00 1129.00 L 1666.00 1136.00 L 1697.00 1137.00 L 1711.00 1144.00 L 1730.00 1144.00 L 1744.00 1152.00 L 1764.00 1153.00 L 1772.00 1160.00 L 1788.00 1162.00 L 1832.00 1184.00 L 1844.00 1185.00 L 1871.00 1200.00 L 1884.00 1198.00 L 1894.00 1186.00 Z M 1739.00 1105.00 L 1739.00 1110.00 L 1734.00 1111.00 L 1726.00 1109.00 L 1716.00 1102.00 L 1693.00 1102.00 L 1677.00 1095.00 L 1647.00 1095.00 L 1603.00 1089.00 L 1559.00 1091.00 L 1545.00 1094.00 L 1514.00 1094.00 L 1483.00 1102.00 L 1461.00 1102.00 L 1441.00 1110.00 L 1425.00 1111.00 L 1411.00 1118.00 L 1389.00 1120.00 L 1357.00 1133.00 L 1341.00 1136.00 L 1333.00 1142.00 L 1321.00 1144.00 L 1313.00 1151.00 L 1302.00 1151.00 L 1292.00 1158.00 L 1281.00 1159.00 L 1272.00 1166.00 L 1259.00 1167.00 L 1248.00 1174.00 L 1240.00 1175.00 L 1195.00 1198.00 L 1186.00 1199.00 L 1176.00 1206.00 L 1169.00 1207.00 L 1159.00 1214.00 L 1148.00 1215.00 L 1139.00 1222.00 L 1127.00 1224.00 L 1121.00 1230.00 L 1108.00 1232.00 L 1101.00 1238.00 L 1087.00 1239.00 L 1078.00 1245.00 L 1063.00 1247.00 L 1050.00 1254.00 L 1038.00 1255.00 L 1026.00 1262.00 L 1014.00 1263.00 L 1003.00 1269.00 L 985.00 1271.00 L 976.00 1278.00 L 953.00 1278.00 L 920.00 1286.00 L 887.00 1286.00 L 873.00 1289.00 L 861.00 1289.00 L 857.00 1286.00 L 861.00 1281.00 L 877.00 1280.00 L 886.00 1273.00 L 903.00 1272.00 L 910.00 1265.00 L 925.00 1264.00 L 933.00 1256.00 L 941.00 1256.00 L 951.00 1251.00 L 965.00 1248.00 L 973.00 1241.00 L 982.00 1240.00 L 994.00 1233.00 L 1001.00 1232.00 L 1009.00 1225.00 L 1015.00 1224.00 L 1023.00 1218.00 L 1034.00 1216.00 L 1041.00 1209.00 L 1051.00 1207.00 L 1085.00 1187.00 L 1095.00 1184.00 L 1102.00 1178.00 L 1128.00 1167.00 L 1137.00 1160.00 L 1141.00 1160.00 L 1149.00 1152.00 L 1157.00 1152.00 L 1164.00 1145.00 L 1173.00 1144.00 L 1182.00 1136.00 L 1192.00 1135.00 L 1199.00 1129.00 L 1207.00 1127.00 L 1215.00 1121.00 L 1222.00 1120.00 L 1231.00 1113.00 L 1242.00 1111.00 L 1249.00 1106.00 L 1257.00 1104.00 L 1268.00 1096.00 L 1275.00 1096.00 L 1284.00 1089.00 L 1294.00 1088.00 L 1307.00 1080.00 L 1319.00 1080.00 L 1330.00 1072.00 L 1346.00 1072.00 L 1360.00 1065.00 L 1380.00 1063.00 L 1390.00 1057.00 L 1417.00 1056.00 L 1437.00 1049.00 L 1514.00 1045.00 L 1542.00 1049.00 L 1586.00 1048.00 L 1594.00 1055.00 L 1608.00 1056.00 L 1625.00 1063.00 L 1648.00 1066.00 L 1661.00 1072.00 L 1675.00 1073.00 L 1679.00 1079.00 L 1692.00 1081.00 L 1702.00 1089.00 L 1715.00 1090.00 L 1730.00 1102.00 Z M 975.00 358.00 L 979.00 370.00 L 986.00 379.00 L 995.00 376.00 L 1740.00 376.00 L 1749.00 378.00 L 1752.00 374.00 L 1755.00 360.00 L 1754.00 340.00 L 1756.00 331.00 L 1749.00 319.00 L 987.00 318.00 L 975.00 332.00 L 977.00 340.00 Z M 119.00 425.00 L 127.00 460.00 L 79.00 543.00 L 47.00 661.00 L 47.00 784.00 L 80.00 913.00 L 136.00 1014.00 L 209.00 1097.00 L 301.00 1167.00 L 417.00 1224.00 L 485.00 1244.00 L 501.00 1221.00 L 666.00 1250.00 L 824.00 1232.00 L 973.00 1175.00 L 1132.00 1088.00 L 1278.00 1026.00 L 1481.00 986.00 L 1661.00 1009.00 L 1793.00 1072.00 L 1882.00 1145.00 L 1900.00 1146.00 L 1912.00 1133.00 L 1870.00 1042.00 L 1789.00 939.00 L 1786.00 849.00 L 1740.00 841.00 L 1728.00 794.00 L 1681.00 770.00 L 1681.00 452.00 L 1705.00 436.00 L 1700.00 392.00 L 1544.00 393.00 L 1527.00 402.00 L 1527.00 437.00 L 1550.00 452.00 L 1550.00 768.00 L 1511.00 797.00 L 1463.00 789.00 L 1432.00 761.00 L 1432.00 453.00 L 1457.00 435.00 L 1456.00 399.00 L 1283.00 392.00 L 1277.00 435.00 L 1302.00 452.00 L 1302.00 769.00 L 1268.00 804.00 L 1232.00 812.00 L 1213.00 784.00 L 1185.00 772.00 L 1185.00 452.00 L 1208.00 436.00 L 1208.00 402.00 L 1196.00 390.00 L 1035.00 392.00 L 1030.00 436.00 L 1049.00 453.00 L 1048.00 770.00 L 1009.00 792.00 L 998.00 842.00 L 952.00 847.00 L 951.00 929.00 L 917.00 951.00 L 892.00 937.00 L 819.00 959.00 L 764.00 961.00 L 698.00 959.00 L 636.00 942.00 L 563.00 909.00 L 480.00 831.00 L 449.00 776.00 L 432.00 670.00 L 465.00 582.00 L 490.00 553.00 L 548.00 513.00 L 630.00 489.00 L 675.00 513.00 L 753.00 584.00 L 774.00 582.00 L 783.00 633.00 L 778.00 743.00 L 811.00 743.00 L 862.00 695.00 L 912.00 598.00 L 920.00 476.00 L 879.00 362.00 L 806.00 272.00 L 727.00 217.00 L 638.00 182.00 L 514.00 172.00 L 415.00 183.00 L 327.00 216.00 L 235.00 278.00 L 168.00 348.00 Z M 1313.00 971.00 L 1324.00 963.00 L 1335.00 959.00 L 1341.00 953.00 L 1350.00 953.00 L 1357.00 945.00 L 1367.00 944.00 L 1376.00 937.00 L 1388.00 935.00 L 1395.00 928.00 L 1408.00 928.00 L 1422.00 921.00 L 1438.00 919.00 L 1451.00 912.00 L 1461.00 912.00 L 1471.00 908.00 L 1478.00 908.00 L 1488.00 905.00 L 1525.00 904.00 L 1549.00 901.00 L 1572.00 901.00 L 1589.00 904.00 L 1615.00 905.00 L 1625.00 907.00 L 1634.00 912.00 L 1657.00 914.00 L 1664.00 919.00 L 1674.00 921.00 L 1684.00 927.00 L 1695.00 929.00 L 1702.00 935.00 L 1715.00 937.00 L 1721.00 943.00 L 1724.00 944.00 L 1729.00 951.00 L 1740.00 953.00 L 1759.00 974.00 L 1764.00 976.00 L 1768.00 982.00 L 1790.00 1003.00 L 1793.00 1010.00 L 1806.00 1025.00 L 1812.00 1037.00 L 1810.00 1037.00 L 1807.00 1033.00 L 1796.00 1030.00 L 1790.00 1023.00 L 1779.00 1023.00 L 1774.00 1015.00 L 1765.00 1015.00 L 1758.00 1007.00 L 1749.00 1006.00 L 1743.00 1001.00 L 1736.00 998.00 L 1724.00 998.00 L 1720.00 993.00 L 1709.00 990.00 L 1703.00 984.00 L 1687.00 982.00 L 1678.00 975.00 L 1664.00 973.00 L 1651.00 967.00 L 1635.00 966.00 L 1622.00 959.00 L 1586.00 958.00 L 1571.00 951.00 L 1533.00 951.00 L 1512.00 949.00 L 1422.00 951.00 L 1407.00 958.00 L 1370.00 958.00 L 1360.00 965.00 L 1338.00 966.00 L 1331.00 972.00 L 1321.00 975.00 L 1317.00 975.00 Z M 1721.00 882.00 L 1744.00 882.00 L 1747.00 886.00 L 1747.00 891.00 L 1750.00 896.00 L 1749.00 901.00 L 1746.00 903.00 L 1741.00 902.00 L 1734.00 893.00 L 1723.00 889.00 L 1720.00 886.00 Z M 1044.00 883.00 L 1043.00 886.00 L 1023.00 896.00 L 1020.00 900.00 L 1016.00 902.00 L 1005.00 904.00 L 991.00 912.00 L 988.00 912.00 L 985.00 909.00 L 985.00 901.00 L 988.00 893.00 L 987.00 887.00 L 988.00 884.00 L 992.00 881.00 L 1040.00 880.00 Z M 1576.00 860.00 L 1570.00 863.00 L 1494.00 863.00 L 1472.00 870.00 L 1458.00 869.00 L 1419.00 879.00 L 1407.00 887.00 L 1394.00 887.00 L 1364.00 902.00 L 1354.00 903.00 L 1266.00 949.00 L 1244.00 967.00 L 1235.00 969.00 L 1209.00 990.00 L 1177.00 1007.00 L 1146.00 1031.00 L 1114.00 1047.00 L 1072.00 1077.00 L 1050.00 1087.00 L 1044.00 1094.00 L 1019.00 1104.00 L 1011.00 1111.00 L 1003.00 1112.00 L 996.00 1119.00 L 971.00 1128.00 L 933.00 1150.00 L 920.00 1152.00 L 914.00 1159.00 L 903.00 1159.00 L 892.00 1167.00 L 879.00 1168.00 L 870.00 1174.00 L 809.00 1190.00 L 793.00 1198.00 L 775.00 1199.00 L 753.00 1206.00 L 686.00 1209.00 L 597.00 1206.00 L 582.00 1199.00 L 563.00 1198.00 L 551.00 1192.00 L 538.00 1191.00 L 495.00 1174.00 L 486.00 1167.00 L 459.00 1157.00 L 454.00 1151.00 L 443.00 1150.00 L 429.00 1136.00 L 382.00 1102.00 L 338.00 1053.00 L 304.00 1005.00 L 308.00 1000.00 L 323.00 1016.00 L 331.00 1016.00 L 338.00 1025.00 L 346.00 1026.00 L 358.00 1038.00 L 409.00 1064.00 L 418.00 1065.00 L 428.00 1072.00 L 444.00 1073.00 L 451.00 1080.00 L 470.00 1081.00 L 480.00 1088.00 L 500.00 1089.00 L 509.00 1095.00 L 522.00 1097.00 L 644.00 1097.00 L 666.00 1089.00 L 693.00 1088.00 L 700.00 1081.00 L 724.00 1080.00 L 800.00 1055.00 L 875.00 1017.00 L 886.00 1015.00 L 893.00 1008.00 L 902.00 1008.00 L 941.00 985.00 L 949.00 984.00 L 981.00 961.00 L 1006.00 952.00 L 1014.00 945.00 L 1021.00 946.00 L 1062.00 921.00 L 1123.00 896.00 L 1132.00 889.00 L 1142.00 888.00 L 1152.00 881.00 L 1165.00 880.00 L 1178.00 872.00 L 1190.00 871.00 L 1201.00 864.00 L 1242.00 855.00 L 1257.00 848.00 L 1269.00 848.00 L 1278.00 841.00 L 1311.00 840.00 L 1326.00 834.00 L 1358.00 832.00 L 1479.00 833.00 L 1510.00 841.00 L 1529.00 841.00 Z M 1044.00 833.00 L 1044.00 828.00 L 1047.00 825.00 L 1055.00 822.00 L 1102.00 822.00 L 1114.00 824.00 L 1176.00 823.00 L 1181.00 826.00 L 1181.00 829.00 L 1179.00 831.00 L 1169.00 831.00 L 1158.00 837.00 L 1146.00 837.00 L 1137.00 840.00 L 1131.00 840.00 L 1120.00 845.00 L 1054.00 845.00 L 1047.00 840.00 Z M 1691.00 831.00 L 1686.00 841.00 L 1682.00 844.00 L 1661.00 844.00 L 1652.00 846.00 L 1644.00 840.00 L 1635.00 838.00 L 1628.00 831.00 L 1613.00 830.00 L 1611.00 828.00 L 1611.00 825.00 L 1615.00 822.00 L 1647.00 824.00 L 1680.00 821.00 L 1689.00 826.00 Z M 366.00 551.00 L 398.00 529.00 L 406.00 526.00 L 419.00 515.00 L 431.00 512.00 L 436.00 507.00 L 455.00 503.00 L 489.00 489.00 L 499.00 489.00 L 501.00 492.00 L 474.00 510.00 L 471.00 516.00 L 440.00 547.00 L 438.00 556.00 L 432.00 560.00 L 424.00 573.00 L 422.00 581.00 L 416.00 587.00 L 414.00 598.00 L 407.00 609.00 L 406.00 619.00 L 399.00 639.00 L 397.00 688.00 L 399.00 751.00 L 405.00 759.00 L 408.00 780.00 L 414.00 788.00 L 416.00 799.00 L 422.00 807.00 L 425.00 819.00 L 431.00 829.00 L 438.00 835.00 L 440.00 846.00 L 446.00 850.00 L 449.00 857.00 L 472.00 886.00 L 532.00 935.00 L 540.00 937.00 L 546.00 944.00 L 553.00 946.00 L 561.00 953.00 L 570.00 954.00 L 577.00 960.00 L 584.00 960.00 L 592.00 967.00 L 601.00 969.00 L 609.00 975.00 L 626.00 978.00 L 635.00 984.00 L 647.00 984.00 L 664.00 992.00 L 679.00 992.00 L 711.00 1000.00 L 762.00 1000.00 L 767.00 1004.00 L 765.00 1006.00 L 729.00 1015.00 L 719.00 1022.00 L 699.00 1023.00 L 690.00 1029.00 L 665.00 1031.00 L 645.00 1039.00 L 542.00 1039.00 L 510.00 1037.00 L 502.00 1031.00 L 478.00 1030.00 L 469.00 1023.00 L 457.00 1022.00 L 449.00 1016.00 L 437.00 1013.00 L 429.00 1007.00 L 420.00 1006.00 L 414.00 1000.00 L 408.00 999.00 L 393.00 990.00 L 388.00 984.00 L 380.00 983.00 L 366.00 968.00 L 359.00 965.00 L 313.00 917.00 L 305.00 906.00 L 303.00 897.00 L 297.00 891.00 L 296.00 883.00 L 289.00 873.00 L 288.00 865.00 L 281.00 852.00 L 280.00 841.00 L 274.00 830.00 L 272.00 806.00 L 265.00 782.00 L 266.00 735.00 L 274.00 711.00 L 273.00 696.00 L 280.00 685.00 L 281.00 672.00 L 288.00 661.00 L 290.00 648.00 L 296.00 635.00 L 303.00 629.00 L 304.00 622.00 L 312.00 613.00 L 314.00 607.00 L 343.00 573.00 Z M 1596.00 448.00 L 1635.00 448.00 L 1638.00 449.00 L 1641.00 453.00 L 1640.00 466.00 L 1642.00 763.00 L 1641.00 770.00 L 1639.00 774.00 L 1635.00 777.00 L 1626.00 776.00 L 1621.00 778.00 L 1597.00 778.00 L 1592.00 770.00 L 1590.00 454.00 Z M 1387.00 448.00 L 1391.00 452.00 L 1390.00 769.00 L 1384.00 777.00 L 1370.00 776.00 L 1354.00 780.00 L 1348.00 778.00 L 1343.00 773.00 L 1341.00 767.00 L 1341.00 453.00 L 1343.00 450.00 L 1348.00 448.00 Z M 1101.00 448.00 L 1138.00 448.00 L 1143.00 453.00 L 1143.00 771.00 L 1138.00 778.00 L 1114.00 778.00 L 1108.00 776.00 L 1100.00 778.00 L 1097.00 776.00 L 1093.00 766.00 L 1093.00 453.00 L 1097.00 449.00 Z M 498.00 329.00 L 507.00 336.00 L 524.00 337.00 L 569.00 353.00 L 601.00 369.00 L 618.00 382.00 L 627.00 384.00 L 695.00 452.00 L 703.00 469.00 L 712.00 479.00 L 712.00 487.00 L 706.00 486.00 L 687.00 471.00 L 677.00 470.00 L 657.00 456.00 L 636.00 448.00 L 621.00 446.00 L 608.00 439.00 L 575.00 436.00 L 566.00 431.00 L 482.00 430.00 L 457.00 438.00 L 442.00 439.00 L 435.00 446.00 L 417.00 447.00 L 409.00 454.00 L 395.00 456.00 L 388.00 462.00 L 363.00 472.00 L 330.00 495.00 L 271.00 555.00 L 262.00 572.00 L 256.00 577.00 L 232.00 622.00 L 229.00 635.00 L 224.00 640.00 L 206.00 697.00 L 207.00 709.00 L 200.00 729.00 L 198.00 752.00 L 199.00 865.00 L 205.00 881.00 L 206.00 904.00 L 214.00 925.00 L 215.00 937.00 L 222.00 948.00 L 224.00 958.00 L 231.00 966.00 L 231.00 982.00 L 237.00 988.00 L 239.00 998.00 L 254.00 1021.00 L 255.00 1030.00 L 265.00 1048.00 L 297.00 1090.00 L 296.00 1099.00 L 321.00 1121.00 L 324.00 1126.00 L 322.00 1129.00 L 311.00 1126.00 L 268.00 1095.00 L 193.00 1020.00 L 147.00 954.00 L 127.00 911.00 L 113.00 889.00 L 112.00 873.00 L 105.00 865.00 L 104.00 847.00 L 96.00 836.00 L 96.00 814.00 L 88.00 789.00 L 83.00 705.00 L 88.00 681.00 L 90.00 647.00 L 96.00 637.00 L 96.00 625.00 L 104.00 606.00 L 105.00 591.00 L 112.00 570.00 L 120.00 560.00 L 121.00 548.00 L 128.00 542.00 L 130.00 533.00 L 144.00 508.00 L 151.00 502.00 L 154.00 492.00 L 181.00 459.00 L 184.00 451.00 L 228.00 409.00 L 248.00 396.00 L 256.00 387.00 L 319.00 353.00 L 333.00 351.00 L 340.00 345.00 L 355.00 343.00 L 382.00 331.00 L 406.00 328.00 Z M 269.00 305.00 L 276.00 298.00 L 317.00 273.00 L 337.00 257.00 L 346.00 255.00 L 355.00 248.00 L 363.00 248.00 L 371.00 240.00 L 382.00 240.00 L 395.00 233.00 L 408.00 231.00 L 417.00 225.00 L 434.00 223.00 L 445.00 216.00 L 470.00 216.00 L 482.00 210.00 L 492.00 208.00 L 564.00 209.00 L 574.00 215.00 L 605.00 217.00 L 622.00 223.00 L 639.00 224.00 L 650.00 232.00 L 663.00 233.00 L 673.00 240.00 L 701.00 249.00 L 706.00 255.00 L 716.00 257.00 L 730.00 269.00 L 738.00 272.00 L 746.00 280.00 L 754.00 282.00 L 778.00 303.00 L 783.00 305.00 L 806.00 332.00 L 822.00 347.00 L 832.00 366.00 L 844.00 382.00 L 849.00 397.00 L 861.00 415.00 L 865.00 434.00 L 871.00 448.00 L 877.00 455.00 L 879.00 490.00 L 883.00 504.00 L 883.00 528.00 L 879.00 548.00 L 878.00 576.00 L 871.00 586.00 L 869.00 599.00 L 863.00 609.00 L 861.00 618.00 L 856.00 624.00 L 855.00 635.00 L 848.00 641.00 L 832.00 666.00 L 827.00 671.00 L 822.00 671.00 L 819.00 667.00 L 820.00 641.00 L 817.00 626.00 L 816.00 580.00 L 809.00 569.00 L 809.00 547.00 L 802.00 534.00 L 799.00 517.00 L 793.00 508.00 L 792.00 496.00 L 786.00 488.00 L 774.00 461.00 L 767.00 449.00 L 761.00 444.00 L 759.00 435.00 L 754.00 431.00 L 743.00 412.00 L 703.00 368.00 L 684.00 350.00 L 671.00 342.00 L 655.00 328.00 L 641.00 320.00 L 633.00 318.00 L 616.00 305.00 L 604.00 302.00 L 597.00 296.00 L 583.00 294.00 L 573.00 288.00 L 558.00 286.00 L 547.00 280.00 L 524.00 278.00 L 503.00 271.00 L 397.00 270.00 L 380.00 275.00 L 352.00 279.00 L 316.00 292.00 L 308.00 292.00 L 281.00 304.00 L 274.00 310.00 L 270.00 310.00 Z M 923.00 273.00 L 927.00 294.00 L 941.00 301.00 L 956.00 299.00 L 1005.00 299.00 L 1011.00 301.00 L 1715.00 301.00 L 1723.00 299.00 L 1775.00 299.00 L 1786.00 301.00 L 1804.00 296.00 L 1809.00 291.00 L 1807.00 267.00 L 1796.00 255.00 L 1787.00 254.00 L 1781.00 246.00 L 1760.00 237.00 L 1729.00 216.00 L 1719.00 213.00 L 1701.00 200.00 L 1692.00 197.00 L 1667.00 177.00 L 1655.00 173.00 L 1639.00 161.00 L 1630.00 158.00 L 1598.00 135.00 L 1589.00 134.00 L 1583.00 128.00 L 1575.00 126.00 L 1559.00 112.00 L 1550.00 109.00 L 1533.00 97.00 L 1523.00 94.00 L 1518.00 88.00 L 1509.00 86.00 L 1491.00 72.00 L 1484.00 70.00 L 1478.00 63.00 L 1468.00 62.00 L 1461.00 54.00 L 1444.00 46.00 L 1438.00 40.00 L 1430.00 38.00 L 1412.00 24.00 L 1404.00 22.00 L 1388.00 9.00 L 1368.00 4.00 L 1348.00 8.00 L 1330.00 22.00 L 1320.00 24.00 L 1314.00 31.00 L 1296.00 40.00 L 1292.00 45.00 L 1280.00 49.00 L 1267.00 62.00 L 1258.00 62.00 L 1251.00 70.00 L 1243.00 72.00 L 1225.00 86.00 L 1215.00 89.00 L 1211.00 94.00 L 1176.00 112.00 L 1170.00 118.00 L 1152.00 128.00 L 1147.00 134.00 L 1137.00 135.00 L 1132.00 141.00 L 1112.00 152.00 L 1106.00 158.00 L 1097.00 161.00 L 1079.00 174.00 L 1067.00 178.00 L 1054.00 189.00 L 1044.00 192.00 L 1028.00 205.00 L 1017.00 208.00 L 1011.00 214.00 L 1004.00 216.00 L 973.00 237.00 L 963.00 240.00 L 953.00 247.00 L 948.00 254.00 L 938.00 256.00 L 929.00 263.00 Z M 1031.00 253.00 L 1045.00 241.00 L 1056.00 238.00 L 1060.00 233.00 L 1069.00 230.00 L 1085.00 218.00 L 1093.00 216.00 L 1099.00 209.00 L 1109.00 206.00 L 1123.00 193.00 L 1130.00 192.00 L 1137.00 185.00 L 1159.00 175.00 L 1165.00 169.00 L 1172.00 167.00 L 1178.00 161.00 L 1184.00 159.00 L 1191.00 153.00 L 1198.00 151.00 L 1203.00 145.00 L 1210.00 143.00 L 1223.00 135.00 L 1227.00 130.00 L 1236.00 128.00 L 1242.00 121.00 L 1252.00 118.00 L 1257.00 113.00 L 1264.00 110.00 L 1267.00 106.00 L 1279.00 102.00 L 1295.00 90.00 L 1304.00 87.00 L 1313.00 80.00 L 1318.00 79.00 L 1334.00 66.00 L 1345.00 62.00 L 1365.00 48.00 L 1369.00 48.00 L 1376.00 55.00 L 1386.00 58.00 L 1393.00 64.00 L 1399.00 65.00 L 1407.00 72.00 L 1418.00 79.00 L 1425.00 81.00 L 1432.00 87.00 L 1441.00 90.00 L 1449.00 97.00 L 1466.00 104.00 L 1472.00 111.00 L 1481.00 113.00 L 1487.00 119.00 L 1492.00 120.00 L 1500.00 127.00 L 1507.00 129.00 L 1512.00 135.00 L 1519.00 138.00 L 1523.00 142.00 L 1533.00 145.00 L 1538.00 151.00 L 1546.00 153.00 L 1563.00 166.00 L 1570.00 168.00 L 1577.00 175.00 L 1586.00 177.00 L 1604.00 191.00 L 1613.00 194.00 L 1617.00 199.00 L 1636.00 209.00 L 1643.00 216.00 L 1649.00 217.00 L 1656.00 223.00 L 1661.00 224.00 L 1667.00 230.00 L 1677.00 233.00 L 1680.00 238.00 L 1690.00 241.00 L 1695.00 247.00 L 1704.00 252.00 L 1703.00 257.00 L 1695.00 258.00 L 1688.00 253.00 L 1683.00 253.00 L 1672.00 258.00 L 1635.00 256.00 L 1135.00 256.00 L 1064.00 258.00 L 1058.00 256.00 L 1054.00 252.00 L 1050.00 252.00 L 1042.00 258.00 L 1035.00 258.00 L 1031.00 255.00 Z " fill="#1D4667" fill-rule="evenodd" transform="translate(50.00,20.00) scale(0.387597)" /></svg>